<svg xmlns="http://www.w3.org/2000/svg" width="28.758" height="30.007" viewBox="0 0 28.758 30.007"><g transform="translate(-4.278 -2.501)"><g transform="translate(4.659 3.068)"><path d="M10.664,16.324,7.921,17.838l.324-3.8-3.586-.517,2.684-2.434-2.6-2.527,3.6-.39L7.73,4.6l3.145,1.8,1.6-3.255L13.958,6.46l3.206-1.692-.741,3.547,3.859.837L17.464,11.53,20.052,14.1l-3.613.3.531,3.586-3.1-1.877L11.8,19.473Z" transform="translate(-4.659 -3.152)" fill="#fcea2b"/><path d="M21.022,24.548a.336.336,0,0,1-.3.3,4.171,4.171,0,0,0-3.383,4.379c0,2.429,1.684,4.4,3.762,4.4H35.444a4.413,4.413,0,0,0,4.133-4.647,4.457,4.457,0,0,0-3.85-4.636.358.358,0,0,1-.329-.289,5.429,5.429,0,0,0-9.522-2.324.347.347,0,0,1-.4.115,3.108,3.108,0,0,0-1.227-.236A3.233,3.233,0,0,0,21.022,24.548Z" transform="translate(-11.701 -12.359)" fill="#d0cfce"/><path d="M26.511,56.241a.934.934,0,1,1-1.539-1,4.708,4.708,0,0,1,1.782-1.351s.274-.157.255.143a4.933,4.933,0,0,1-.5,2.2" transform="translate(-15.822 -31.305)" fill="#92d3f5"/><path d="M27.007,54.088a4.587,4.587,0,0,1-.321,2.2.933.933,0,0,1-1.4.354s1.209-.432,1.719-2.556" transform="translate(-16.114 -31.435)" fill="#61b2e4"/><path d="M56.615,56.241a.934.934,0,1,1-1.539-1,4.708,4.708,0,0,1,1.782-1.351s.274-.157.255.143a4.934,4.934,0,0,1-.5,2.2" transform="translate(-32.538 -31.305)" fill="#92d3f5"/><path d="M57.111,54.088a4.587,4.587,0,0,1-.321,2.2.933.933,0,0,1-1.4.354s1.209-.432,1.719-2.556" transform="translate(-32.83 -31.435)" fill="#61b2e4"/><path d="M41.563,56.241a.934.934,0,1,1-1.539-1,4.708,4.708,0,0,1,1.782-1.351s.274-.157.255.143a4.934,4.934,0,0,1-.5,2.2" transform="translate(-24.18 -31.305)" fill="#92d3f5"/><path d="M42.059,54.088a4.587,4.587,0,0,1-.321,2.2.933.933,0,0,1-1.4.354s1.209-.432,1.719-2.556" transform="translate(-24.472 -31.435)" fill="#61b2e4"/><path d="M33.537,63.812a.934.934,0,1,1-1.539-1,4.708,4.708,0,0,1,1.782-1.351s.274-.157.255.143a4.934,4.934,0,0,1-.5,2.2" transform="translate(-19.723 -35.509)" fill="#92d3f5"/><path d="M34.033,61.659a4.587,4.587,0,0,1-.321,2.2.933.933,0,0,1-1.4.354s1.209-.432,1.719-2.556" transform="translate(-20.015 -35.639)" fill="#61b2e4"/><path d="M48.589,63.812a.934.934,0,1,1-1.539-1,4.708,4.708,0,0,1,1.782-1.351s.274-.157.255.143a4.934,4.934,0,0,1-.5,2.2" transform="translate(-28.081 -35.509)" fill="#92d3f5"/><path d="M49.085,61.659a4.587,4.587,0,0,1-.321,2.2.933.933,0,0,1-1.4.354s1.209-.432,1.719-2.556" transform="translate(-28.373 -35.639)" fill="#61b2e4"/></g><g transform="translate(4.778 3.001)"><path d="M9.194,16.639l-1.423.8.741-3.547-3.586-.517L7.61,10.94l-2.6-2.527,3.6-.39L8,4.452l3.145,1.8L12.74,3l1.483,3.308L17.43,4.617l-.741,3.547,3.586.517-1.3,1.06" transform="translate(-4.925 -3.001)" fill="none" stroke="#000" stroke-linecap="round" stroke-linejoin="round" stroke-miterlimit="10" stroke-width="1"/><path d="M20.967,14.581a4.8,4.8,0,1,0-6.848,4.8" transform="translate(-8.521 -7.035)" fill="none" stroke="#000" stroke-linecap="round" stroke-linejoin="round" stroke-miterlimit="10" stroke-width="1"/><path d="M21.022,24.548a.336.336,0,0,1-.3.3,4.171,4.171,0,0,0-3.383,4.379c0,2.429,1.684,4.4,3.762,4.4H35.444a4.413,4.413,0,0,0,4.133-4.647,4.457,4.457,0,0,0-3.85-4.636.358.358,0,0,1-.329-.289,5.429,5.429,0,0,0-9.522-2.324.347.347,0,0,1-.4.115,3.108,3.108,0,0,0-1.227-.236A3.233,3.233,0,0,0,21.022,24.548Z" transform="translate(-11.819 -12.292)" fill="none" stroke="#000" stroke-linecap="round" stroke-linejoin="round" stroke-miterlimit="10" stroke-width="1"/><path d="M26.511,56.241a.934.934,0,1,1-1.539-1,4.222,4.222,0,0,1,1.782-1.351s.274-.157.255.143a4.933,4.933,0,0,1-.5,2.2" transform="translate(-15.94 -31.238)" fill="none" stroke="#000" stroke-linecap="round" stroke-linejoin="round" stroke-miterlimit="10" stroke-width="1"/><path d="M56.615,56.241a.934.934,0,1,1-1.539-1,4.222,4.222,0,0,1,1.782-1.351s.274-.157.255.143a4.934,4.934,0,0,1-.5,2.2" transform="translate(-32.656 -31.238)" fill="none" stroke="#000" stroke-linecap="round" stroke-linejoin="round" stroke-miterlimit="10" stroke-width="1"/><path d="M41.563,56.241a.934.934,0,1,1-1.539-1,4.222,4.222,0,0,1,1.782-1.351s.274-.157.255.143a4.934,4.934,0,0,1-.5,2.2" transform="translate(-24.298 -31.238)" fill="none" stroke="#000" stroke-linecap="round" stroke-linejoin="round" stroke-miterlimit="10" stroke-width="1"/><path d="M33.537,63.812a.934.934,0,1,1-1.539-1,4.222,4.222,0,0,1,1.782-1.351s.274-.157.255.143a4.934,4.934,0,0,1-.5,2.2" transform="translate(-19.842 -35.442)" fill="none" stroke="#000" stroke-linecap="round" stroke-linejoin="round" stroke-miterlimit="10" stroke-width="1"/><path d="M48.589,63.812a.934.934,0,1,1-1.539-1,4.222,4.222,0,0,1,1.782-1.351s.274-.157.255.143a4.934,4.934,0,0,1-.5,2.2" transform="translate(-28.2 -35.442)" fill="none" stroke="#000" stroke-linecap="round" stroke-linejoin="round" stroke-miterlimit="10" stroke-width="1"/></g></g></svg>