<svg xmlns="http://www.w3.org/2000/svg" width="24.88" height="18.362" viewBox="0 0 24.88 18.362"><g transform="translate(-3.5 -15.163)"><g transform="translate(4 15.663)"><path d="M62.968,19.751c0-2.285-1.968-4.675-1.968-3.958s.364,10.238.364,10.238L61,32.256a.769.769,0,1,0,1.538,0l-.2-6.262A52.747,52.747,0,0,0,62.968,19.751Z" transform="translate(-39.089 -15.663)" fill="#d0cfce"/><path d="M6.853,16.74s.043,1.6.043,3.116a2.351,2.351,0,0,1-.838,2.139h0l.011,10.924a.769.769,0,1,1-1.538,0L4.842,22h0A2.346,2.346,0,0,1,4,19.856c0-1.518.043-3.116.043-3.116" transform="translate(-4 -16.326)" fill="#d0cfce"/><line y2="3.685" transform="translate(1.448 0.414)" fill="#d0cfce"/><circle cx="7.672" cy="7.672" r="7.672" transform="translate(4.629 0.129)" fill="#d0cfce"/><circle cx="4.67" cy="4.67" r="4.67" transform="translate(7.632 3.147)" fill="#d0cfce"/></g><g transform="translate(4 15.663)"><path d="M62.968,19.751c0-2.285-1.968-4.675-1.968-3.958s.364,10.238.364,10.238L61,32.256a.769.769,0,1,0,1.538,0l-.2-6.262A52.747,52.747,0,0,0,62.968,19.751Z" transform="translate(-39.089 -15.663)" fill="none" stroke="#000" stroke-miterlimit="10" stroke-width="1"/><path d="M6.853,16.74s.043,1.6.043,3.116a2.351,2.351,0,0,1-.838,2.139h0l.011,10.924a.769.769,0,1,1-1.538,0L4.842,22h0A2.346,2.346,0,0,1,4,19.856c0-1.518.043-3.116.043-3.116" transform="translate(-4 -16.326)" fill="none" stroke="#000" stroke-linecap="round" stroke-linejoin="round" stroke-miterlimit="10" stroke-width="1"/><line y2="3.685" transform="translate(1.448 0.414)" fill="none" stroke="#000" stroke-linecap="round" stroke-linejoin="round" stroke-miterlimit="10" stroke-width="1"/><circle cx="7.672" cy="7.672" r="7.672" transform="translate(4.629 0.129)" fill="none" stroke="#000" stroke-linecap="round" stroke-linejoin="round" stroke-miterlimit="10" stroke-width="1"/><circle cx="4.67" cy="4.67" r="4.67" transform="translate(7.632 3.147)" fill="none" stroke="#000" stroke-linecap="round" stroke-linejoin="round" stroke-miterlimit="10" stroke-width="1"/></g></g></svg>