<svg xmlns="http://www.w3.org/2000/svg" width="25.607" height="23.758" viewBox="0 0 25.607 23.758"><g transform="translate(-4.713 -5.551)"><g transform="translate(5.213 6.851)"><path d="M34.355,16.092V8.476s.525-.956,1.2,0v7.616" transform="translate(-22.709 -8.052)" fill="#9b9b9a" stroke="#9b9b9a" stroke-miterlimit="10" stroke-width="2"/><path d="M17.535,38.94H13.36a.736.736,0,0,0-.643.392,5.937,5.937,0,0,1-3.733,3.228,1.237,1.237,0,0,1-.194.025c-5.756.17-2.836-7.419-2.836-7.419a20.244,20.244,0,0,1,3.52-5.951A.74.74,0,0,1,9.992,29H25.041a.74.74,0,0,1,.518.211,20.244,20.244,0,0,1,3.52,5.951s2.92,7.589-2.836,7.419a1.242,1.242,0,0,1-.194-.025,5.937,5.937,0,0,1-3.733-3.228.736.736,0,0,0-.643-.392H17.5" transform="translate(-5.213 -20.631)" fill="#9b9b9a"/></g><g transform="translate(5.213 6.052)"><path d="M36.4,18.021" transform="translate(-23.936 -13.238)" fill="none" stroke="#000" stroke-miterlimit="10" stroke-width="1"/><path d="M38.482,18.021" transform="translate(-25.187 -13.238)" fill="none" stroke="#000" stroke-miterlimit="10" stroke-width="1"/><path d="M35.917,18.021" transform="translate(-23.647 -13.238)" fill="none" stroke="#000" stroke-miterlimit="10" stroke-width="1"/><path d="M38,18.021" transform="translate(-24.897 -13.238)" fill="none" stroke="#000" stroke-miterlimit="10" stroke-width="1"/><path d="M17.535,38.94H13.36a.736.736,0,0,0-.643.392,5.937,5.937,0,0,1-3.733,3.228,1.237,1.237,0,0,1-.194.025c-5.756.17-2.836-7.419-2.836-7.419a20.244,20.244,0,0,1,3.52-5.951A.74.74,0,0,1,9.992,29H25.041a.74.74,0,0,1,.518.211,20.244,20.244,0,0,1,3.52,5.951s2.92,7.589-2.836,7.419a1.242,1.242,0,0,1-.194-.025,5.937,5.937,0,0,1-3.733-3.228.736.736,0,0,0-.643-.392H17.5" transform="translate(-5.213 -19.832)" fill="none" stroke="#000" stroke-miterlimit="10" stroke-width="1"/><path d="M18.389,38.376V38.7H14.647v-.324h3.742Z" transform="translate(-10.877 -25.458)" stroke="#000" stroke-linecap="round" stroke-linejoin="round" stroke-miterlimit="10" stroke-width="1"/><path d="M18.924,34.1h.324v3.742h-.324V34.1Z" transform="translate(-13.445 -22.89)" stroke="#000" stroke-linecap="round" stroke-linejoin="round" stroke-miterlimit="10" stroke-width="1"/><circle cx="1.599" cy="1.599" r="1.599" transform="translate(8.407 14.366)"/><circle cx="1.599" cy="1.599" r="1.599" transform="translate(13.003 14.366)"/><circle cx="0.799" cy="0.799" r="0.799" transform="translate(16.544 12.28)"/><circle cx="0.799" cy="0.799" r="0.799" transform="translate(19.929 12.28)"/><circle cx="0.799" cy="0.799" r="0.799" transform="translate(18.237 13.781)"/><circle cx="0.799" cy="0.799" r="0.799" transform="translate(18.237 10.796)"/><path d="M34.355,13.657v-7.2a.864.864,0,0,1,.516-.4c.192-.03.427.052.683.4v7.2" transform="translate(-22.709 -6.052)" fill="none" stroke="#000" stroke-linecap="round" stroke-linejoin="round" stroke-miterlimit="10" stroke-width="1"/></g></g></svg>