<svg xmlns="http://www.w3.org/2000/svg" width="24.362" height="23.771" viewBox="0 0 24.362 23.771"><g transform="translate(-11.5 -12.521)"><g transform="translate(12 13.021)"><path d="M46.85,40.986l5.131,4.183a.733.733,0,0,0,1.2-.568V32.374a.733.733,0,0,0-1.2-.568l-5.273,4.3" transform="translate(-29.816 -22.578)" fill="#d0cfce"/><circle cx="3.478" cy="3.478" r="3.478" transform="translate(0.01)" fill="#d0cfce"/><circle cx="3.478" cy="3.478" r="3.478" transform="translate(9.937)" fill="#d0cfce"/><path d="M27.563,45.344H13.471A1.471,1.471,0,0,1,12,43.873v-10.4A1.471,1.471,0,0,1,13.471,32H27.563a1.471,1.471,0,0,1,1.471,1.471v10.4A1.471,1.471,0,0,1,27.563,45.344Z" transform="translate(-12 -22.763)" fill="#d0cfce"/></g><g transform="translate(12 13.021)"><path d="M46.85,40.986l5.131,4.183a.733.733,0,0,0,1.2-.568V32.374a.733.733,0,0,0-1.2-.568l-5.273,4.3" transform="translate(-29.816 -22.578)" fill="none" stroke="#000" stroke-linecap="round" stroke-linejoin="round" stroke-miterlimit="10" stroke-width="1"/><circle cx="3.478" cy="3.478" r="3.478" transform="translate(0.01)" fill="none" stroke="#000" stroke-linejoin="round" stroke-miterlimit="10" stroke-width="1"/><circle cx="3.478" cy="3.478" r="3.478" transform="translate(9.937)" fill="none" stroke="#000" stroke-linejoin="round" stroke-miterlimit="10" stroke-width="1"/><path d="M27.563,45.344H13.471A1.471,1.471,0,0,1,12,43.873v-10.4A1.471,1.471,0,0,1,13.471,32H27.563a1.471,1.471,0,0,1,1.471,1.471v10.4A1.471,1.471,0,0,1,27.563,45.344Z" transform="translate(-12 -22.763)" fill="none" stroke="#000" stroke-linejoin="round" stroke-miterlimit="10" stroke-width="1"/></g></g></svg>