<svg xmlns="http://www.w3.org/2000/svg" width="30.4" height="14.112" viewBox="0 0 30.4 14.112"><g transform="translate(-5.5 -21.665)"><g transform="translate(6 22.093)"><path d="M35.4,34l-1.96,7.35H7.96L6,34Z" transform="translate(-6 -28.166)" fill="#d0cfce"/><path d="M35.4,29.788c0-5.142-9.558-3.92-14.7-3.92S6,24.646,6,29.788Z" transform="translate(-6 -23.954)" fill="#d0cfce"/><path d="M14,27.452c0-5.142,7.7-2.94,10.78-2.94s10.78-2.2,10.78,2.94Z" transform="translate(-10.08 -23.088)" fill="#d0cfce"/><path d="M25,27.719c0-9.007,4.156-4.495,5.39-4.495s5.88-4.513,5.88,4.495Z" transform="translate(-15.69 -22.094)" fill="#d0cfce"/><path d="M35.9,42.88c0-5.142-1.422-5.88-2.45-5.88S31,37.738,31,42.88Z" transform="translate(-18.75 -29.696)" fill="#92d3f5"/></g><g transform="translate(6 22.092)"><path d="M35.4,27.927l-1.96,7.35H23.15c0-5.14-1.421-5.88-2.45-5.88s-2.45.74-2.45,5.88H7.96L6,27.927c0-2.391,2.073-3.406,4.807-3.812C11.939,23.056,14,22.958,16.04,23.1c1.25-2.328,3.749.127,4.66.127s3.66-2.44,5.057-.152c1.911-.093,3.778.054,4.836,1.044C33.328,24.521,35.4,25.536,35.4,27.927Z" transform="translate(-6 -22.092)" fill="none" stroke="#000" stroke-linecap="round" stroke-linejoin="round" stroke-miterlimit="10" stroke-width="1"/><line x1="4.9" transform="translate(12.25 13.185)" fill="none" stroke="#000" stroke-linecap="round" stroke-linejoin="round" stroke-miterlimit="10" stroke-width="1"/><path d="M57.077,28.562a3.053,3.053,0,0,0-.887-2.342" transform="translate(-31.597 -24.197)" fill="none" stroke="#000" stroke-linecap="round" stroke-linejoin="round" stroke-miterlimit="10" stroke-width="1"/><path d="M14.887,26.22A3.053,3.053,0,0,0,14,28.562" transform="translate(-10.08 -24.197)" fill="none" stroke="#000" stroke-linecap="round" stroke-linejoin="round" stroke-miterlimit="10" stroke-width="1"/><path d="M47.143,28.735a12.44,12.44,0,0,0-.461-3.832l-.363-.813" transform="translate(-26.563 -23.111)" fill="none" stroke="#000" stroke-linecap="round" stroke-linejoin="round" stroke-miterlimit="10" stroke-width="1"/><path d="M25.73,24.14l-.314.789A13.747,13.747,0,0,0,25,28.761" transform="translate(-15.69 -23.136)" fill="none" stroke="#000" stroke-linecap="round" stroke-linejoin="round" stroke-miterlimit="10" stroke-width="1"/><path d="M13,45.43V42.49a.491.491,0,0,1,.49-.49" transform="translate(-9.57 -32.245)" fill="none" stroke="#000" stroke-linecap="round" stroke-linejoin="round" stroke-miterlimit="10" stroke-width="1"/><path d="M19,45.43V42.49a.491.491,0,0,1,.49-.49" transform="translate(-12.63 -32.245)" fill="none" stroke="#000" stroke-linecap="round" stroke-linejoin="round" stroke-miterlimit="10" stroke-width="1"/><path d="M25,45.43V42.49a.491.491,0,0,1,.49-.49" transform="translate(-15.69 -32.245)" fill="none" stroke="#000" stroke-linecap="round" stroke-linejoin="round" stroke-miterlimit="10" stroke-width="1"/><path d="M57,45.43V42.49a.491.491,0,0,1,.49-.49" transform="translate(-32.01 -32.245)" fill="none" stroke="#000" stroke-linecap="round" stroke-linejoin="round" stroke-miterlimit="10" stroke-width="1"/><path d="M51,45.43V42.49a.491.491,0,0,1,.49-.49" transform="translate(-28.95 -32.245)" fill="none" stroke="#000" stroke-linecap="round" stroke-linejoin="round" stroke-miterlimit="10" stroke-width="1"/><path d="M45,45.43V42.49a.491.491,0,0,1,.49-.49" transform="translate(-25.89 -32.245)" fill="none" stroke="#000" stroke-linecap="round" stroke-linejoin="round" stroke-miterlimit="10" stroke-width="1"/><path d="M35.9,42.88H31C31,37.74,32.421,37,33.45,37S35.9,37.74,35.9,42.88Z" transform="translate(-18.75 -29.695)" fill="none" stroke="#000" stroke-linecap="round" stroke-linejoin="round" stroke-miterlimit="10" stroke-width="1"/></g></g></svg>