<svg xmlns="http://www.w3.org/2000/svg" width="31.2" height="23.5" viewBox="0 0 31.2 23.5"><g transform="translate(-11.5 -19.5)"><g transform="translate(12.5 20)"><path d="M20.475,35,12.5,48.75H28.45L20.475,35" transform="translate(-12.5 -26.75)" fill="#fcea2b" stroke="#fcea2b" stroke-linecap="round" stroke-linejoin="round" stroke-miterlimit="10" stroke-width="2"/><path d="M20.475,35V48.75H12.5L20.475,35" transform="translate(-12.5 -26.75)" fill="#f1b31c" stroke="#f1b31c" stroke-linecap="round" stroke-linejoin="round" stroke-miterlimit="10" stroke-width="2"/><path d="M49.85,26.939c0-1.949-2-3.532-4.473-3.532a5.666,5.666,0,0,0-.617.039A6.644,6.644,0,0,0,38.8,20c-3.632,0-6.576,2.665-6.576,5.952a5.448,5.448,0,0,0,.041.65A3.639,3.639,0,0,0,29.5,29.866c0,1.949,2,3.532,4.473,3.532a5.262,5.262,0,0,0,2.682-.71,7.473,7.473,0,0,0,4.66,1.435c3.2,0,5.8-1.581,5.8-3.532a2.191,2.191,0,0,0-.036-.384A3.644,3.644,0,0,0,49.85,26.939Z" transform="translate(-20.15 -20)" fill="#b1cc33"/><path d="M22.5,54a23.821,23.821,0,0,1-2.75.55A2.75,2.75,0,0,0,17,57.3h5.5Z" transform="translate(-14.525 -35.3)" fill="#8967aa"/></g><g transform="translate(12.5 20)"><path d="M27,60" transform="translate(-19.025 -38)" fill="none" stroke="#000" stroke-linecap="round" stroke-linejoin="round" stroke-miterlimit="10" stroke-width="1"/><path d="M44.562,54.223V50l-2.907-2.84" transform="translate(-25.62 -32.223)" fill="none" stroke="#000" stroke-linecap="round" stroke-linejoin="round" stroke-width="1"/><line y1="1.742" x2="1.653" transform="translate(19.256 15.978)" fill="none" stroke="#000" stroke-linecap="round" stroke-linejoin="round" stroke-width="1"/><path d="M20.475,35,12.5,48.75H28.45l-3.814-6.576" transform="translate(-12.5 -26.75)" fill="none" stroke="#000" stroke-linecap="round" stroke-linejoin="round" stroke-miterlimit="10" stroke-width="1"/><line y1="8.663" transform="translate(7.975 13.337)" fill="none" stroke="#000" stroke-linecap="round" stroke-linejoin="round" stroke-miterlimit="10" stroke-width="1"/><line y2="8.663" transform="translate(7.975 13.337)" fill="none" stroke="#000" stroke-linecap="round" stroke-linejoin="round" stroke-miterlimit="10" stroke-width="1"/><path d="M49.85,26.939c0-1.949-2-3.532-4.473-3.532a5.666,5.666,0,0,0-.617.039A6.644,6.644,0,0,0,38.8,20c-3.632,0-6.576,2.665-6.576,5.952a5.448,5.448,0,0,0,.041.65A3.639,3.639,0,0,0,29.5,29.866c0,1.949,2,3.532,4.473,3.532a5.262,5.262,0,0,0,2.682-.71,7.473,7.473,0,0,0,4.66,1.435c3.2,0,5.8-1.581,5.8-3.532a2.191,2.191,0,0,0-.036-.384A3.644,3.644,0,0,0,49.85,26.939Z" transform="translate(-20.15 -20)" fill="none" stroke="#000" stroke-linecap="round" stroke-miterlimit="10" stroke-width="1"/><path d="M22.5,54a23.821,23.821,0,0,1-2.75.55A2.75,2.75,0,0,0,17,57.3h5.5Z" transform="translate(-14.525 -35.3)" fill="none" stroke="#000" stroke-linecap="round" stroke-linejoin="round" stroke-miterlimit="10" stroke-width="1"/></g></g></svg>