<svg xmlns="http://www.w3.org/2000/svg" width="26" height="16.5" viewBox="0 0 26 16.5"><g transform="translate(-8.006 -19)"><g transform="translate(8.367 19.279)"><rect width="25" height="15" transform="translate(0.14 0.221)" fill="#d0cfce"/><rect width="5" height="4" transform="translate(10.14 11.221)" fill="#92d3f5"/><rect width="0.911" height="2.278" transform="translate(6.26 11.164)" fill="none" stroke="#92d3f5" stroke-linecap="round" stroke-linejoin="round" stroke-miterlimit="10" stroke-width="2"/><rect width="0.911" height="2.278" transform="translate(2.615 11.164)" fill="none" stroke="#92d3f5" stroke-linecap="round" stroke-linejoin="round" stroke-miterlimit="10" stroke-width="2"/><rect width="0.911" height="2.278" transform="translate(6.26 6.608)" fill="none" stroke="#92d3f5" stroke-linecap="round" stroke-linejoin="round" stroke-miterlimit="10" stroke-width="2"/><rect width="0.911" height="2.278" transform="translate(2.615 6.608)" fill="none" stroke="#92d3f5" stroke-linecap="round" stroke-linejoin="round" stroke-miterlimit="10" stroke-width="2"/><rect width="0.911" height="2.278" transform="translate(6.26 2.051)" fill="none" stroke="#92d3f5" stroke-linecap="round" stroke-linejoin="round" stroke-miterlimit="10" stroke-width="2"/><rect width="0.911" height="2.278" transform="translate(2.615 2.051)" fill="none" stroke="#92d3f5" stroke-linecap="round" stroke-linejoin="round" stroke-miterlimit="10" stroke-width="2"/><rect width="0.911" height="2.278" transform="translate(14.007 6.608)" fill="none" stroke="#92d3f5" stroke-linecap="round" stroke-linejoin="round" stroke-miterlimit="10" stroke-width="2"/><rect width="0.911" height="2.278" transform="translate(10.361 6.608)" fill="none" stroke="#92d3f5" stroke-linecap="round" stroke-linejoin="round" stroke-miterlimit="10" stroke-width="2"/><rect width="0.911" height="2.278" transform="translate(14.007 2.051)" fill="none" stroke="#92d3f5" stroke-linecap="round" stroke-linejoin="round" stroke-miterlimit="10" stroke-width="2"/><rect width="0.911" height="2.278" transform="translate(10.361 2.051)" fill="none" stroke="#92d3f5" stroke-linecap="round" stroke-linejoin="round" stroke-miterlimit="10" stroke-width="2"/><rect width="0.911" height="2.278" transform="translate(21.753 11.164)" fill="none" stroke="#92d3f5" stroke-linecap="round" stroke-linejoin="round" stroke-miterlimit="10" stroke-width="2"/><rect width="0.911" height="2.278" transform="translate(18.108 11.164)" fill="none" stroke="#92d3f5" stroke-linecap="round" stroke-linejoin="round" stroke-miterlimit="10" stroke-width="2"/><rect width="0.911" height="2.278" transform="translate(21.753 6.608)" fill="none" stroke="#92d3f5" stroke-linecap="round" stroke-linejoin="round" stroke-miterlimit="10" stroke-width="2"/><rect width="0.911" height="2.278" transform="translate(18.108 6.608)" fill="none" stroke="#92d3f5" stroke-linecap="round" stroke-linejoin="round" stroke-miterlimit="10" stroke-width="2"/><rect width="0.911" height="2.278" transform="translate(21.753 2.051)" fill="none" stroke="#92d3f5" stroke-linecap="round" stroke-linejoin="round" stroke-miterlimit="10" stroke-width="2"/><rect width="0.911" height="2.278" transform="translate(18.108 2.051)" fill="none" stroke="#92d3f5" stroke-linecap="round" stroke-linejoin="round" stroke-miterlimit="10" stroke-width="2"/></g><g transform="translate(8.367 19.279)"><rect width="25" height="15" transform="translate(0.14 0.221)" fill="none" stroke="#000" stroke-linecap="round" stroke-linejoin="round" stroke-miterlimit="10" stroke-width="1"/><rect width="5" height="4" transform="translate(10.14 11.221)" fill="none" stroke="#000" stroke-linecap="round" stroke-linejoin="round" stroke-miterlimit="10" stroke-width="1"/><line y1="4.557" transform="translate(12.64 11.164)" fill="none" stroke="#000" stroke-linecap="round" stroke-linejoin="round" stroke-miterlimit="10" stroke-width="1"/><path d="M14.911,26.278H14V24" transform="translate(-11.385 -21.949)" fill="none" stroke="#000" stroke-linecap="round" stroke-linejoin="round" stroke-miterlimit="10" stroke-width="1"/><path d="M22.911,46.278H22V44" transform="translate(-15.74 -32.836)" fill="none" stroke="#000" stroke-linecap="round" stroke-linejoin="round" stroke-miterlimit="10" stroke-width="1"/><path d="M14.911,46.278H14V44" transform="translate(-11.385 -32.836)" fill="none" stroke="#000" stroke-linecap="round" stroke-linejoin="round" stroke-miterlimit="10" stroke-width="1"/><path d="M22.911,36.278H22V34" transform="translate(-15.74 -27.392)" fill="none" stroke="#000" stroke-linecap="round" stroke-linejoin="round" stroke-miterlimit="10" stroke-width="1"/><path d="M14.911,36.278H14V34" transform="translate(-11.385 -27.392)" fill="none" stroke="#000" stroke-linecap="round" stroke-linejoin="round" stroke-miterlimit="10" stroke-width="1"/><path d="M22.911,26.278H22V24" transform="translate(-15.74 -21.949)" fill="none" stroke="#000" stroke-linecap="round" stroke-linejoin="round" stroke-miterlimit="10" stroke-width="1"/><path d="M39.911,36.278H39V34" transform="translate(-24.993 -27.392)" fill="none" stroke="#000" stroke-linecap="round" stroke-linejoin="round" stroke-miterlimit="10" stroke-width="1"/><path d="M31.911,36.278H31V34" transform="translate(-20.639 -27.392)" fill="none" stroke="#000" stroke-linecap="round" stroke-linejoin="round" stroke-miterlimit="10" stroke-width="1"/><path d="M39.911,26.278H39V24" transform="translate(-24.993 -21.949)" fill="none" stroke="#000" stroke-linecap="round" stroke-linejoin="round" stroke-miterlimit="10" stroke-width="1"/><path d="M31.911,26.278H31V24" transform="translate(-20.639 -21.949)" fill="none" stroke="#000" stroke-linecap="round" stroke-linejoin="round" stroke-miterlimit="10" stroke-width="1"/><path d="M56.911,46.278H56V44" transform="translate(-34.247 -32.836)" fill="none" stroke="#000" stroke-linecap="round" stroke-linejoin="round" stroke-miterlimit="10" stroke-width="1"/><path d="M48.911,46.278H48V44" transform="translate(-29.892 -32.836)" fill="none" stroke="#000" stroke-linecap="round" stroke-linejoin="round" stroke-miterlimit="10" stroke-width="1"/><path d="M56.911,36.278H56V34" transform="translate(-34.247 -27.392)" fill="none" stroke="#000" stroke-linecap="round" stroke-linejoin="round" stroke-miterlimit="10" stroke-width="1"/><path d="M48.911,36.278H48V34" transform="translate(-29.892 -27.392)" fill="none" stroke="#000" stroke-linecap="round" stroke-linejoin="round" stroke-miterlimit="10" stroke-width="1"/><path d="M56.911,26.278H56V24" transform="translate(-34.247 -21.949)" fill="none" stroke="#000" stroke-linecap="round" stroke-linejoin="round" stroke-miterlimit="10" stroke-width="1"/><path d="M48.911,26.278H48V24" transform="translate(-29.892 -21.949)" fill="none" stroke="#000" stroke-linecap="round" stroke-linejoin="round" stroke-miterlimit="10" stroke-width="1"/></g></g></svg>