<svg xmlns="http://www.w3.org/2000/svg" width="17" height="19" viewBox="0 0 17 19"><g transform="translate(-13.75 -11.5)"><g transform="translate(14 12)"><rect width="15" height="13" transform="translate(1.25 5)" fill="#9b9b9a"/><rect width="16" height="1" transform="translate(0.25 4)" fill="#d0cfce"/><path d="M19.5,26h.77V38.75H19.5" transform="translate(-17.438 -20.75)" fill="#fff"/><path d="M24.933,26H25.7V38.75h-.764" transform="translate(-20.833 -20.75)" fill="#fff"/><path d="M45.786,38.75h-.768V26h.768" transform="translate(-33.386 -20.75)" fill="#fff"/><path d="M51.239,38.75h-.757V26h.757" transform="translate(-36.801 -20.75)" fill="#fff"/><path d="M25.375,12,19,15.75H31.75Z" transform="translate(-17.125 -12)" fill="#d0cfce"/><rect width="3.375" height="3.75" transform="translate(6.563 14.25)" fill="#92d3f5"/><ellipse cx="2" cy="1.5" rx="2" ry="1.5" transform="translate(6.25 7)" fill="#fcea2b"/><path d="M35.651,33.846a.382.382,0,0,0-.385-.25h0a.321.321,0,1,0,0,.626h-.008a.321.321,0,1,1,0,.626h0a.382.382,0,0,1-.385-.25" transform="translate(-27.046 -25.497)" fill="none" stroke="#f4aa41" stroke-linecap="round" stroke-linejoin="round" stroke-miterlimit="10" stroke-width="1"/><line y1="0.298" transform="translate(8.216 7.8)" fill="none" stroke="#f4aa41" stroke-linecap="round" stroke-linejoin="round" stroke-miterlimit="10" stroke-width="1"/><line y1="0.298" transform="translate(8.216 9.352)" fill="none" stroke="#f4aa41" stroke-linecap="round" stroke-linejoin="round" stroke-miterlimit="10" stroke-width="1"/></g><g transform="translate(14 12)"><rect width="15" height="13" transform="translate(1.25 5)" fill="none" stroke="#000" stroke-linecap="round" stroke-linejoin="round" stroke-miterlimit="10" stroke-width="1"/><rect width="16" height="1" transform="translate(0.25 4)" fill="none" stroke="#000" stroke-linecap="round" stroke-linejoin="round" stroke-miterlimit="10" stroke-width="1"/><path d="M19.5,26h1.125V38.75H19.5" transform="translate(-17.438 -20.75)" fill="none" stroke="#000" stroke-linecap="round" stroke-linejoin="round" stroke-miterlimit="10" stroke-width="1"/><path d="M24.933,26h1.125V38.75H24.933" transform="translate(-20.833 -20.75)" fill="none" stroke="#000" stroke-linecap="round" stroke-linejoin="round" stroke-miterlimit="10" stroke-width="1"/><path d="M45.192,38.75H44.067V26h1.125" transform="translate(-32.792 -20.75)" fill="none" stroke="#000" stroke-linecap="round" stroke-linejoin="round" stroke-miterlimit="10" stroke-width="1"/><path d="M50.625,38.75H49.5V26h1.125" transform="translate(-36.188 -20.75)" fill="none" stroke="#000" stroke-linecap="round" stroke-linejoin="round" stroke-miterlimit="10" stroke-width="1"/><path d="M25.375,12,19,15.656H31.75Z" transform="translate(-17.125 -12)" fill="none" stroke="#000" stroke-linecap="round" stroke-linejoin="round" stroke-miterlimit="10" stroke-width="1"/><rect width="3.375" height="3.75" transform="translate(6.563 14.25)" fill="none" stroke="#000" stroke-linecap="round" stroke-linejoin="round" stroke-miterlimit="10" stroke-width="1"/><line y1="4" transform="translate(8.25 14)" fill="none" stroke="#000" stroke-linecap="round" stroke-linejoin="round" stroke-miterlimit="10" stroke-width="1"/><ellipse cx="2" cy="1.5" rx="2" ry="1.5" transform="translate(6.25 7)" fill="none" stroke="#000" stroke-miterlimit="10" stroke-width="1"/><path d="M35.651,33.846a.382.382,0,0,0-.385-.25h0a.321.321,0,1,0,0,.626h-.008a.321.321,0,1,1,0,.626h0a.382.382,0,0,1-.385-.25" transform="translate(-27.046 -25.497)" fill="none" stroke="#000" stroke-linecap="round" stroke-linejoin="round" stroke-miterlimit="10" stroke-width="1"/><line y1="0.298" transform="translate(8.216 7.8)" fill="none" stroke="#000" stroke-linecap="round" stroke-linejoin="round" stroke-miterlimit="10" stroke-width="1"/><line y1="0.298" transform="translate(8.216 9.352)" fill="none" stroke="#000" stroke-linecap="round" stroke-linejoin="round" stroke-miterlimit="10" stroke-width="1"/></g></g></svg>