<svg xmlns="http://www.w3.org/2000/svg" width="19" height="12.538" viewBox="0 0 19 12.538"><g transform="translate(-7.886 -17.291)"><g transform="translate(8.419 17.75)"><rect width="18" height="11" transform="translate(-0.033 0.041)" fill="#d0cfce"/><rect width="6" height="4" transform="translate(5.967 7.041)" fill="#a57939"/><circle cx="2" cy="2" r="2" transform="translate(6.967 1.041)" fill="#fff"/><rect width="0.651" height="1.627" transform="translate(3.804 8.324)" fill="none" stroke="#92d3f5" stroke-linecap="round" stroke-linejoin="round" stroke-miterlimit="10" stroke-width="2"/><rect width="0.651" height="1.627" transform="translate(1.525 8.324)" fill="none" stroke="#92d3f5" stroke-linecap="round" stroke-linejoin="round" stroke-miterlimit="10" stroke-width="2"/><rect width="0.651" height="1.627" transform="translate(3.804 5.069)" fill="none" stroke="#92d3f5" stroke-linecap="round" stroke-linejoin="round" stroke-miterlimit="10" stroke-width="2"/><rect width="0.651" height="1.627" transform="translate(1.525 5.069)" fill="none" stroke="#92d3f5" stroke-linecap="round" stroke-linejoin="round" stroke-miterlimit="10" stroke-width="2"/><rect width="0.651" height="1.627" transform="translate(3.804 1.814)" fill="none" stroke="#92d3f5" stroke-linecap="round" stroke-linejoin="round" stroke-miterlimit="10" stroke-width="2"/><rect width="0.651" height="1.627" transform="translate(1.525 1.814)" fill="none" stroke="#92d3f5" stroke-linecap="round" stroke-linejoin="round" stroke-miterlimit="10" stroke-width="2"/><rect width="0.651" height="1.627" transform="translate(15.847 8.324)" fill="none" stroke="#92d3f5" stroke-linecap="round" stroke-linejoin="round" stroke-miterlimit="10" stroke-width="2"/><rect width="0.651" height="1.627" transform="translate(13.569 8.324)" fill="none" stroke="#92d3f5" stroke-linecap="round" stroke-linejoin="round" stroke-miterlimit="10" stroke-width="2"/><rect width="0.651" height="1.627" transform="translate(15.847 5.069)" fill="none" stroke="#92d3f5" stroke-linecap="round" stroke-linejoin="round" stroke-miterlimit="10" stroke-width="2"/><rect width="0.651" height="1.627" transform="translate(13.569 5.069)" fill="none" stroke="#92d3f5" stroke-linecap="round" stroke-linejoin="round" stroke-miterlimit="10" stroke-width="2"/><rect width="0.651" height="1.627" transform="translate(15.847 1.814)" fill="none" stroke="#92d3f5" stroke-linecap="round" stroke-linejoin="round" stroke-miterlimit="10" stroke-width="2"/><rect width="0.651" height="1.627" transform="translate(13.569 1.814)" fill="none" stroke="#92d3f5" stroke-linecap="round" stroke-linejoin="round" stroke-miterlimit="10" stroke-width="2"/></g><g transform="translate(8.419 17.75)"><rect width="18" height="11" transform="translate(-0.033 0.041)" fill="none" stroke="#000" stroke-linecap="round" stroke-linejoin="round" stroke-miterlimit="10" stroke-width="1"/><rect width="6" height="4" transform="translate(5.967 7.041)" fill="none" stroke="#000" stroke-linecap="round" stroke-linejoin="round" stroke-miterlimit="10" stroke-width="1"/><line y1="4.231" transform="translate(9.012 7.348)" fill="none" stroke="#000" stroke-linecap="round" stroke-linejoin="round" stroke-miterlimit="10" stroke-width="1"/><circle cx="2" cy="2" r="2" transform="translate(6.967 1.041)" fill="none" stroke="#000" stroke-linecap="round" stroke-linejoin="round" stroke-width="1"/><line y1="1.302" transform="translate(9.012 2.465)" fill="none" stroke="#000" stroke-linecap="round" stroke-linejoin="round" stroke-width="1"/><line y1="0.325" x2="0.651" transform="translate(9.012 3.442)" fill="none" stroke="#000" stroke-linecap="round" stroke-linejoin="round" stroke-width="1"/><path d="M20.651,44.627H20V43" transform="translate(-16.196 -34.676)" fill="none" stroke="#000" stroke-linecap="round" stroke-linejoin="round" stroke-miterlimit="10" stroke-width="1"/><path d="M13.651,44.627H13V43" transform="translate(-11.475 -34.676)" fill="none" stroke="#000" stroke-linecap="round" stroke-linejoin="round" stroke-miterlimit="10" stroke-width="1"/><path d="M20.651,34.627H20V33" transform="translate(-16.196 -27.931)" fill="none" stroke="#000" stroke-linecap="round" stroke-linejoin="round" stroke-miterlimit="10" stroke-width="1"/><path d="M13.651,34.627H13V33" transform="translate(-11.475 -27.931)" fill="none" stroke="#000" stroke-linecap="round" stroke-linejoin="round" stroke-miterlimit="10" stroke-width="1"/><path d="M20.651,24.627H20V23" transform="translate(-16.196 -21.186)" fill="none" stroke="#000" stroke-linecap="round" stroke-linejoin="round" stroke-miterlimit="10" stroke-width="1"/><path d="M13.651,24.627H13V23" transform="translate(-11.475 -21.186)" fill="none" stroke="#000" stroke-linecap="round" stroke-linejoin="round" stroke-miterlimit="10" stroke-width="1"/><path d="M57.651,44.627H57V43" transform="translate(-41.153 -34.676)" fill="none" stroke="#000" stroke-linecap="round" stroke-linejoin="round" stroke-miterlimit="10" stroke-width="1"/><path d="M50.651,44.627H50V43" transform="translate(-36.431 -34.676)" fill="none" stroke="#000" stroke-linecap="round" stroke-linejoin="round" stroke-miterlimit="10" stroke-width="1"/><path d="M57.651,34.627H57V33" transform="translate(-41.153 -27.931)" fill="none" stroke="#000" stroke-linecap="round" stroke-linejoin="round" stroke-miterlimit="10" stroke-width="1"/><path d="M50.651,34.627H50V33" transform="translate(-36.431 -27.931)" fill="none" stroke="#000" stroke-linecap="round" stroke-linejoin="round" stroke-miterlimit="10" stroke-width="1"/><path d="M57.651,24.627H57V23" transform="translate(-41.153 -21.186)" fill="none" stroke="#000" stroke-linecap="round" stroke-linejoin="round" stroke-miterlimit="10" stroke-width="1"/><path d="M50.651,24.627H50V23" transform="translate(-36.431 -21.186)" fill="none" stroke="#000" stroke-linecap="round" stroke-linejoin="round" stroke-miterlimit="10" stroke-width="1"/></g></g></svg>