<svg xmlns="http://www.w3.org/2000/svg" width="16.856" height="21.568" viewBox="0 0 16.856 21.568"><g transform="translate(-16.088 -7.368)"><g transform="translate(16.445 7.782)"><path d="M16.484,50.453s-.747-5.768,4.232-5.768a6.82,6.82,0,0,0,3.734,1.49H24.4a7.5,7.5,0,0,0,3.942-1.532c4.8-.014,3.987,5.768,4.083,5.809" transform="translate(-16.445 -29.591)" fill="#92d3f5"/><path d="M39.9,43.644a7.917,7.917,0,0,1-3.791,1.614c5.42.171,5.42,2.951,5.736,4.61h2.122S44.884,43.644,39.9,43.644Z" transform="translate(-27.952 -29.005)" fill="#61b2e4"/><path d="M33.879,53.214l.763,1.322.654.8a.082.082,0,0,1-.063.134H32.525a.082.082,0,0,1-.063-.134l.654-.8Z" transform="translate(-25.805 -34.605)" fill="#3f3f3f"/><path d="M39.5,44.795,37.967,48.43l-1.071-1.1v0l-1.058-1.087h.05A6.824,6.824,0,0,0,39.5,44.795Z" transform="translate(-27.791 -29.679)" fill="#92d3f5"/><path d="M35.392,49.352v0c-.046.647-.274,1.319-1.033,1.319-.726,0-.967-.627-1.025-1.249l-.066-.062,1.066-1.1Z" transform="translate(-26.287 -31.709)" fill="#3f3f3f"/><path d="M30.642,46.165l-1.066,1.1-1.062,1.1-1.556-3.685A6.977,6.977,0,0,0,30.642,46.165Z" transform="translate(-22.596 -29.609)" fill="#92d3f5"/><path d="M33.215,11.626c.515.137.174,1.046-.166,1.456l-.929,1.129-.029.017a3.432,3.432,0,0,0-.793-.822l-.274-.224a3.158,3.158,0,0,0,.544-.506H22.825a3.817,3.817,0,0,0,.61.494l-.315.237a3.411,3.411,0,0,0-.726.73l-.054-.041L21.5,13.083c-.336-.411-.68-1.319-.162-1.456,2.382-.635,2.469-3.261,5.938-3.261S30.833,10.992,33.215,11.626Zm-5.925.137c.88,0,1.021-1.606,1.021-1.606a1.726,1.726,0,0,0-2.075-.025S26.41,11.763,27.289,11.763Z" transform="translate(-19.153 -8.365)" fill="#92d3f5"/><path d="M28.891,20.236a6.883,6.883,0,0,1-2.988-.988,3.817,3.817,0,0,1-.61-.494h8.743a3.158,3.158,0,0,1-.544.506A4.825,4.825,0,0,1,31.953,20,7.933,7.933,0,0,1,28.891,20.236Z" transform="translate(-21.622 -14.444)" fill="#3f3f3f"/><path d="M41.35,10.539s.388,3.41-1.075,3.41l2.219.139.721,1.236a2.767,2.767,0,0,0,1.5-2.172S41.7,11.4,41.35,10.539Z" transform="translate(-30.387 -9.637)" fill="#61b2e4"/><path d="M34.612,13.786c-.88,0-1.052-1.632-1.052-1.632a1.732,1.732,0,0,1,2.075.024S35.492,13.784,34.612,13.786Z" transform="translate(-26.458 -10.387)" fill="#fcea2b"/></g><g transform="translate(19.148 12.587)"><path d="M23.687,23.995c-.037.083-.054.129-.054.129a2.437,2.437,0,0,1-.137-3.212,3.411,3.411,0,0,1,.726-.73l.315-.237a6.883,6.883,0,0,0,2.988.988A5.137,5.137,0,0,0,23.687,23.995Z" transform="translate(-22.959 -19.945)" fill="#f4aa41"/><path d="M43.787,24.083a.5.5,0,0,1-.041.058s-1.12-3.3-2.4-3.407l0-.017a4.825,4.825,0,0,0,1.539-.743l.274.224a3.432,3.432,0,0,1,.793.822A2.407,2.407,0,0,1,43.787,24.083Z" transform="translate(-33.715 -19.963)" fill="#f4aa41"/></g><g transform="translate(19.876 13.342)"><path d="M34.016,25.188a.5.5,0,0,0,.041-.058c-.278,2.917-2.266,5.178-4.672,5.178-2.427,0-4.419-2.3-4.672-5.249A5.137,5.137,0,0,1,28.552,22a7.933,7.933,0,0,0,3.062-.232l0,.017C32.9,21.885,34.016,25.188,34.016,25.188ZM31.875,23.86a.83.83,0,1,0-.83.83A.83.83,0,0,0,31.875,23.86Zm-3.319,0a.83.83,0,1,0-.83.83A.83.83,0,0,0,28.556,23.86Z" transform="translate(-24.713 -21.765)" fill="#fcea2b"/></g><g transform="translate(16.606 7.368)"><path d="M47.021,53.825a.83.83,0,1,1-.83-.83.83.83,0,0,1,.83.83" transform="translate(-33.524 -34.063)"/><path d="M51.335,53.552" transform="translate(-37.019 -34.389)" fill="none" stroke="#000" stroke-linecap="round" stroke-linejoin="round" stroke-miterlimit="10" stroke-width="1"/><path d="M45.838,48.237" transform="translate(-33.803 -31.279)" fill="none" stroke="#000" stroke-linecap="round" stroke-linejoin="round" stroke-miterlimit="10" stroke-width="1"/><path d="M16.885,50.069s-.83-5.394,4.149-5.394a6.977,6.977,0,0,0,3.685,1.49h.05a6.824,6.824,0,0,0,3.61-1.44l.075-.05c4.979,0,4.149,5.394,4.149,5.394" transform="translate(-16.833 -29.195)" fill="none" stroke="#000" stroke-linecap="round" stroke-linejoin="round" stroke-miterlimit="10" stroke-width="1"/><path d="M26.958,44.675l1.556,3.685,1.062-1.1,1.066-1.1" transform="translate(-22.757 -29.195)" fill="none" stroke="#000" stroke-linecap="round" stroke-linejoin="round" stroke-miterlimit="10" stroke-width="1"/><line x1="1.058" y1="1.087" transform="translate(7.886 16.969)" fill="none" stroke="#000" stroke-linecap="round" stroke-linejoin="round" stroke-miterlimit="10" stroke-width="1"/><path d="M41.01,44.675l-.021.05L39.458,48.36l-1.071-1.1" transform="translate(-29.444 -29.195)" fill="none" stroke="#000" stroke-linecap="round" stroke-linejoin="round" stroke-miterlimit="10" stroke-width="1"/><path d="M33.428,50.96c.058.622.3,1.249,1.025,1.249.759,0,.988-.672,1.033-1.319v0" transform="translate(-26.542 -32.828)" fill="none" stroke="#000" stroke-linecap="round" stroke-linejoin="round" stroke-miterlimit="10" stroke-width="1"/><line x1="1" y2="1.494" transform="translate(6.558 19.38)" fill="none" stroke="#000" stroke-linecap="round" stroke-linejoin="round" stroke-miterlimit="10" stroke-width="1"/><line x2="1.004" y2="1.494" transform="translate(8.263 19.38)" fill="none" stroke="#000" stroke-linecap="round" stroke-linejoin="round" stroke-miterlimit="10" stroke-width="1"/><path d="M22.958,55.959H20.533a.415.415,0,1,1,0-.83h2.425a.415.415,0,0,1,0,.83Z" transform="translate(-18.755 -35.311)"/><path d="M38.8,24.815a.83.83,0,1,1-.83.83A.83.83,0,0,1,38.8,24.815Z" transform="translate(-29.202 -17.576)"/><path d="M30.8,24.815a.83.83,0,1,1-.83.83A.83.83,0,0,1,30.8,24.815Z" transform="translate(-24.521 -17.576)"/><path d="M33.682,35.21a3.175,3.175,0,0,1-1.43-.356.415.415,0,1,1,.371-.742,2.231,2.231,0,0,0,2.118,0,.415.415,0,1,1,.371.742A3.175,3.175,0,0,1,33.682,35.21Z" transform="translate(-25.72 -22.989)"/><path d="M28.834,34.475c-2.662,0-4.854-2.455-5.1-5.71l.827-.062c.208,2.772,2.084,4.942,4.27,4.942s4.014-2.08,4.262-4.839c.019-.207.028-.418.028-.627h.83c0,.233-.011.469-.031.7C33.636,32.07,31.448,34.475,28.834,34.475Z" transform="translate(-20.872 -19.544)"/><path d="M42.263,17.078" transform="translate(-31.711 -13.049)" fill="none" stroke="#000" stroke-linecap="round" stroke-linejoin="round" stroke-miterlimit="10" stroke-width="1"/><path d="M29.639,17.078" transform="translate(-24.325 -13.049)" fill="none" stroke="#000" stroke-linecap="round" stroke-linejoin="round" stroke-miterlimit="10" stroke-width="1"/><path d="M46.4,16.264" transform="translate(-34.134 -12.573)" fill="none" stroke="#000" stroke-linecap="round" stroke-linejoin="round" stroke-miterlimit="10" stroke-width="1"/><path d="M34.026,13.612c-1.218,0-1.442-1.8-1.464-2a.415.415,0,0,1,.158-.371,2.128,2.128,0,0,1,2.622.057.416.416,0,0,1,.121.331c-.018.2-.212,1.984-1.435,1.987Zm0-.83v0c.313,0,.5-.605.577-1a1.414,1.414,0,0,0-1.176-.008c.091.444.3,1.012.6,1.012Z" transform="translate(-26.034 -9.385)"/><path d="M23.092,23.953a.414.414,0,0,1-.325-.157,3.022,3.022,0,0,1-.737-2.363,3.58,3.58,0,0,1,1.413-2.178l.3-.228a.415.415,0,0,1,.5.662l-.316.239a2.776,2.776,0,0,0-1.079,1.635,1.93,1.93,0,0,0,.194,1.13,5.4,5.4,0,0,1,3.95-2.729.415.415,0,0,1,.116.822,4.694,4.694,0,0,0-3.627,2.894.414.414,0,0,1-.391.274Z" transform="translate(-19.856 -14.14)"/><path d="M29.3,20.123a7.079,7.079,0,0,1-4.842-1.658.415.415,0,0,1,.294-.708h8.742a.415.415,0,0,1,.316.684,5.707,5.707,0,0,1-4.152,1.675Q29.479,20.123,29.3,20.123Zm-3.247-1.536a7.465,7.465,0,0,0,3.572.7,5.95,5.95,0,0,0,2.713-.7Z" transform="translate(-21.223 -13.447)"/><path d="M31.576,14.045a.415.415,0,0,1-.319-.679l.933-1.129a1.506,1.506,0,0,0,.336-.806,5.071,5.071,0,0,1-2.34-1.593,4.448,4.448,0,0,0-6.9,0,5.072,5.072,0,0,1-2.34,1.593,1.512,1.512,0,0,0,.336.806l.835,1.01a.415.415,0,0,1-.639.529l-.835-1.01a2.022,2.022,0,0,1-.48-1.625.736.736,0,0,1,.528-.5,4.31,4.31,0,0,0,2-1.382,5.27,5.27,0,0,1,8.087,0,4.311,4.311,0,0,0,2,1.382.735.735,0,0,1,.528.5,2.019,2.019,0,0,1-.48,1.624L31.9,13.894A.414.414,0,0,1,31.576,14.045Z" transform="translate(-18.755 -7.368)"/><path d="M43.21,23.973a.416.416,0,0,1-.393-.282c-.417-1.228-1.353-3.072-2.039-3.129a.415.415,0,0,1-.379-.448.409.409,0,0,1,.448-.379c1.109.093,1.995,1.8,2.451,2.889a1.893,1.893,0,0,0,.154-1.042,2.767,2.767,0,0,0-1.066-1.625l-.3-.245a.415.415,0,0,1,.527-.641l.274.225a3.558,3.558,0,0,1,1.385,2.157,3.023,3.023,0,0,1-.737,2.363A.415.415,0,0,1,43.21,23.973Z" transform="translate(-30.62 -14.16)"/></g></g></svg>