<svg xmlns="http://www.w3.org/2000/svg" width="21.623" height="25.467" viewBox="0 0 21.623 25.467"><g transform="translate(-14.133 -10.2)"><g transform="translate(15.133 11.2)"><path d="M46.617,24.856a9.808,9.808,0,0,1-9.086,9.783c7.316-4.271,8.2-11.714,2.188-18.713l-.071-.085c-1.548-1.79.682-4.64.682-4.64h.942A1.54,1.54,0,0,1,42.8,12.734v.009a1.522,1.522,0,0,1-.327.938,1.5,1.5,0,0,1-.611.474h0c-.554.549-1.042,1.482.379,2.533l.052.038a1.724,1.724,0,0,1,.166.114,9.645,9.645,0,0,1,1.87,1.724A9.321,9.321,0,0,1,45.6,20.518a.955.955,0,0,1,.052.1c.071.156.137.308.2.464.047.128.1.256.142.379s.09.26.128.384c0,0,0,.009,0,.014.033.118.071.241.1.36,0,.019.014.043.019.062.014.057.028.1.038.161a1.7,1.7,0,0,1,.057.223c.014.076.033.142.047.218.014.057.028.123.043.185,0,0,0,.019,0,.024.024.137.047.265.066.388.024.17.043.327.062.469.009.1.019.194.024.275C46.621,24.619,46.617,24.856,46.617,24.856Z" transform="translate(-26.995 -11.2)" fill="#6a462f" stroke="#6a462f" stroke-linecap="round" stroke-linejoin="round" stroke-miterlimit="10" stroke-width="2"/><path d="M25.815,34.638a2.046,2.046,0,0,1-.237.014c-.161.009-.327.014-.488.014a9.813,9.813,0,0,1-9.811-9.811v-.062c0-.133,0-.26.014-.393,0-.057,0-.114.009-.18s.014-.175.024-.275c.014-.123.033-.26.057-.407.009-.071.024-.147.033-.227a12.643,12.643,0,0,1,.379-1.558c.028-.09.062-.189.1-.289.1-.275.213-.559.346-.848a.49.49,0,0,1,.052-.1,16.535,16.535,0,0,1,1.274-1.956,9.645,9.645,0,0,1,1.87-1.724,1.724,1.724,0,0,1,.166-.114l.052-.038c1.4-1.037.947-1.96.4-2.51a1.5,1.5,0,0,1-.691-.526.059.059,0,0,1-.014-.009,1.526,1.526,0,0,1-.294-.9v-.009A1.537,1.537,0,0,1,20.593,11.2h8.021s-2.23,2.85-.682,4.64l.071.085C34.012,22.924,33.131,30.367,25.815,34.638Z" transform="translate(-15.28 -11.2)" fill="#a57939" stroke="#a57939" stroke-linecap="round" stroke-linejoin="round" stroke-miterlimit="10" stroke-width="2"/></g><g transform="translate(15 11.201)"><path d="M16.486,34.105q.065-.326.154-.641C16.579,33.688,16.529,33.9,16.486,34.105Z" transform="translate(-15.782 -22.923)"/><path d="M16.941,32.53c-.05.145-.088.294-.13.442C16.85,32.828,16.893,32.68,16.941,32.53Z" transform="translate(-15.953 -22.431)"/><path d="M16.315,35.236c.023-.132.051-.272.081-.417C16.368,34.957,16.336,35.094,16.315,35.236Z" transform="translate(-15.692 -23.636)"/><path d="M16.016,44.583" transform="translate(-15.535 -28.777)"/><path d="M16.049,37.91c-.009.128-.014.251-.014.379C16.035,38.218,16.035,38.09,16.049,37.91Z" transform="translate(-15.545 -25.263)"/><line x1="6.076" transform="translate(6.878 4.087)" fill="none" stroke="#000" stroke-linecap="round" stroke-miterlimit="10" stroke-width="1"/><path d="M34.9,24.857a9.811,9.811,0,0,1-19.622,0v-.064c0-.133,0-.26.015-.393,0-.054,0-.113.01-.177,0-.084.015-.177.025-.275.015-.123.029-.26.054-.408.01-.074.025-.147.034-.226a11.8,11.8,0,0,1,.378-1.558c.029-.093.064-.192.1-.29.1-.275.216-.56.349-.85a.616.616,0,0,1,.049-.1,16.772,16.772,0,0,1,1.273-1.956,9.751,9.751,0,0,1,1.872-1.725c.054-.039.113-.079.167-.113l.049-.034c1.4-1.037.948-1.961.4-2.511a1.468,1.468,0,0,1-.688-.526.061.061,0,0,1-.015-.01,1.516,1.516,0,0,1-.295-.9v-.01A1.538,1.538,0,0,1,20.592,11.2h8.963a1.538,1.538,0,0,1,1.533,1.533v.01a1.54,1.54,0,0,1-.324.939,1.516,1.516,0,0,1-.609.472h0c-.555.55-1.042,1.484.378,2.536l.049.034c.054.034.113.074.167.113a9.753,9.753,0,0,1,1.872,1.725,9.623,9.623,0,0,1,1.273,1.956.612.612,0,0,1,.049.1c.074.157.138.31.2.467.049.128.1.256.142.378s.088.26.128.383c0,0,0,.01,0,.015.034.118.069.241.1.359,0,.02.015.044.02.064.015.054.029.1.039.157.02.074.039.147.054.226s.034.142.049.216.029.123.039.187a.03.03,0,0,0,0,.02c.025.138.049.265.069.388q.037.258.059.472c.01.1.02.192.025.275C34.906,24.622,34.9,24.857,34.9,24.857Z" transform="translate(-15.147 -11.201)" fill="none" stroke="#000" stroke-linecap="round" stroke-linejoin="round" stroke-miterlimit="10" stroke-width="1"/><path d="M36.155,35.382a1.34,1.34,0,0,0-1.351-.877h0a1.127,1.127,0,1,0,0,2.2l-.028,0a1.127,1.127,0,1,1,0,2.2h0a1.34,1.34,0,0,1-1.351-.877" transform="translate(-24.701 -23.471)" fill="none" stroke="#000" stroke-linecap="round" stroke-linejoin="round" stroke-miterlimit="10" stroke-width="1"/><line y1="1.047" transform="translate(10.089 9.988)" fill="none" stroke="#000" stroke-linecap="round" stroke-linejoin="round" stroke-miterlimit="10" stroke-width="1"/><line y1="1.047" transform="translate(10.089 15.431)" fill="none" stroke="#000" stroke-linecap="round" stroke-linejoin="round" stroke-miterlimit="10" stroke-width="1"/><path d="M18.841,20A2.782,2.782,0,0,0,16,22.841" transform="translate(-15.526 -15.834)" fill="none" stroke="#000" stroke-linecap="round" stroke-linejoin="round" stroke-miterlimit="10" stroke-width="1"/><path d="M15.947,16.947A.927.927,0,0,1,15,16" transform="translate(-15 -13.728)" fill="none" stroke="#000" stroke-linecap="round" stroke-linejoin="round" stroke-miterlimit="10" stroke-width="1"/></g></g></svg>