<svg xmlns="http://www.w3.org/2000/svg" width="22.102" height="23.597" viewBox="0 0 22.102 23.597"><g transform="translate(-11.187 -8.188)"><g transform="translate(11.444 8.688)"><path d="M12,28.105V42.159l13.917,0,7.073-5.3c0-.021.112-1.735.112-1.735V28.092Z" transform="translate(-11.754 -19.562)" fill="#fff"/><path d="M11.444,18.67l21.344-.088v-7.02s-2.873-.44-2.63-.44H28.595l.023,2.537c.759.2.945,1.357.945,1.357-.01.964-1.177,1.112-1.183,1.111-.812-.166-1.094-.564-1.085-1.232a.963.963,0,0,1,.355-.914.957.957,0,0,1,.576-.343l-.012-2.517H16.235l.031,2.517c.759.2,1.008.375,1,1.2-.009.964-1.19,1.442-1.2,1.442-.969-.009-1.315-.456-1.306-1.426a1.79,1.79,0,0,1,.721-1.148c.225-.221.307-.361.6-.437l-.105-2.144H14.34c.094,0-2.652.44-2.652.44Z" transform="translate(-11.444 -10.053)" fill="#ea5a47"/><path d="M50.005,48.038H42.594s-.4,2.683-.427,2.472v2.385l.655.44Z" transform="translate(-28.661 -30.74)" fill="#d0cfce"/><line y2="4.532" transform="translate(4.647)" fill="#9b9b9a"/><line y2="4.532" transform="translate(16.956)" fill="#9b9b9a"/></g><g transform="translate(11.687 8.688)"><circle cx="1.319" cy="1.319" r="1.319" transform="translate(3.067 6.212) rotate(-89.45)" fill="none" stroke="#000" stroke-linecap="round" stroke-linejoin="round" stroke-miterlimit="10" stroke-width="1"/><line x2="8.814" transform="translate(6.158 1.51)" fill="none" stroke="#000" stroke-linecap="round" stroke-linejoin="round" stroke-miterlimit="10" stroke-width="1"/><path d="M30.47,12.122H33.1v7.034H12V12.122h2.652" transform="translate(-11.999 -10.613)" fill="none" stroke="#000" stroke-linecap="round" stroke-linejoin="round" stroke-miterlimit="10" stroke-width="1"/><line y2="4.532" transform="translate(4.404)" fill="none" stroke="#000" stroke-linecap="round" stroke-linejoin="round" stroke-miterlimit="10" stroke-width="1"/><circle cx="1.319" cy="1.319" r="1.319" transform="translate(15.376 6.212) rotate(-89.45)" fill="none" stroke="#000" stroke-linecap="round" stroke-linejoin="round" stroke-miterlimit="10" stroke-width="1"/><line y2="4.532" transform="translate(16.713)" fill="none" stroke="#000" stroke-linecap="round" stroke-linejoin="round" stroke-miterlimit="10" stroke-width="1"/><path d="M34.271,35.574A2.475,2.475,0,0,1,36.7,33.6h0a2.466,2.466,0,0,1,1.749.725,1.91,1.91,0,0,1-.021,2.59l-4.2,4.739h2.093" transform="translate(-24.452 -22.648)" fill="none" stroke="#000" stroke-linecap="round" stroke-linejoin="round" stroke-miterlimit="10" stroke-width="1"/><path d="M23.276,35.269l2.23-1.67v8.054" transform="translate(-18.318 -22.648)" fill="none" stroke="#000" stroke-linecap="round" stroke-linejoin="round" stroke-miterlimit="10" stroke-width="1"/><path d="M12,28.092V42.159l13.917,0,7.183-5.3V28.092" transform="translate(-11.997 -19.562)" fill="none" stroke="#000" stroke-linecap="round" stroke-linejoin="round" stroke-miterlimit="10" stroke-width="1"/><path d="M50.439,48.038h-7.3v2.409" transform="translate(-29.449 -30.74)" fill="none" stroke="#000" stroke-linecap="round" stroke-linejoin="round" stroke-miterlimit="10" stroke-width="1"/></g></g></svg>