<svg xmlns="http://www.w3.org/2000/svg" width="19.745" height="19.745" viewBox="0 0 19.745 19.745"><g transform="translate(-13.171 -12.325)"><g transform="translate(13.671 12.825)"><path d="M13.671,16.339c.586,4.1,11.13,14.645,15.23,15.23a4.162,4.162,0,0,0,3.515-2.343l-3.808-3.808-1.464,1.464c-2.929-.586-8.2-5.858-8.787-8.787l1.464-1.464-3.808-3.808A4.162,4.162,0,0,0,13.671,16.339Z" transform="translate(-13.671 -12.825)" fill="#d0cfce"/><path d="M19.215,18.385l-4.09-4.039L16.73,13l3.624,3.676Z" transform="translate(-14.523 -12.927)" fill="#9b9b9a"/><path d="M50.215,49.385l-4.09-4.039L47.73,44l3.624,3.676Z" transform="translate(-32.682 -31.087)" fill="#9b9b9a"/></g><g transform="translate(13.671 12.825)"><path d="M13.671,16.339c.586,4.1,11.13,14.645,15.23,15.23a4.162,4.162,0,0,0,3.515-2.343l-3.808-3.808-1.464,1.464c-2.929-.586-8.2-5.858-8.787-8.787l1.464-1.464-3.808-3.808A4.162,4.162,0,0,0,13.671,16.339Z" transform="translate(-13.671 -12.825)" fill="none" stroke="#000" stroke-linecap="round" stroke-linejoin="round" stroke-miterlimit="10" stroke-width="1"/><path d="M13.671,16.339c.586,4.1,11.13,14.645,15.23,15.23a4.162,4.162,0,0,0,3.515-2.343l-3.808-3.808-1.464,1.464c-2.929-.586-8.2-5.858-8.787-8.787l1.464-1.464-3.808-3.808A4.162,4.162,0,0,0,13.671,16.339Z" transform="translate(-13.671 -12.825)" fill="none" stroke="#000" stroke-linecap="round" stroke-linejoin="round" stroke-miterlimit="10" stroke-width="1"/></g></g></svg>