<svg xmlns="http://www.w3.org/2000/svg" width="24.135" height="18.004" viewBox="0 0 24.135 18.004"><g transform="translate(-11.416 -16.521)"><g transform="translate(11.72 17.021)"><path d="M28.893,28.007a4.624,4.624,0,1,0,4.624,4.624A4.629,4.629,0,0,0,28.893,28.007Zm0,7.037A2.412,2.412,0,1,1,31.3,32.631,2.415,2.415,0,0,1,28.893,35.043Z" transform="translate(-18.214 -22.706)" fill="#3f3f3f"/><circle cx="2.412" cy="2.412" r="2.412" transform="translate(8.266 7.512)" fill="#d0cfce"/><path d="M34.226,22.918H13.643A2.038,2.038,0,0,0,12.126,24.4l.22,3.482h3.882l2,.091c-.006.01,1.581-2.8,4.378-2.8,2,0,4.219,2.418,4.216,2.413l1.637.144,6.9.111-.1-3.445C35.26,23.846,34.8,22.918,34.226,22.918Z" transform="translate(-11.93 -20.073)" fill="#fff"/><path d="M22.768,18.064a6.833,6.833,0,0,1-.651-1.043H17.757s-.618,1.208-.63,1.177V19.8l5.641-.057Z" transform="translate(-14.518 -17.021)" fill="#f1b31c"/><path d="M33.554,42a11.812,11.812,0,0,0,1.5-.929l.1-8.431-5.2-.109L28.8,32.2H27.022l.007.017h0c.106.189-.321.384-.238.586.005.013.143,3.858.075,3.929a22.559,22.559,0,0,1-1.476,1.855,4.316,4.316,0,0,1-2.255.984c-.167.016-.964.055-1.02.048a7.14,7.14,0,0,1-2.028-.672,6.508,6.508,0,0,1-1.549-1.249,3.588,3.588,0,0,1-.483-.965,4.643,4.643,0,0,1-.405-2.307,13.639,13.639,0,0,1,.65-2.171L16.018,32.2c.087,0-4.3.19-4.3.19l.05,8.014a3.548,3.548,0,0,0,.59,1.045A2.1,2.1,0,0,0,13.3,42Z" transform="translate(-11.72 -24.875)" fill="#9b9b9a"/></g><g transform="translate(11.916 17.021)"><path d="M13.643,22.918A1.5,1.5,0,0,0,12.126,24.4V35.6a1.5,1.5,0,0,0,1.517,1.478h20.1A1.5,1.5,0,0,0,35.26,35.6V24.4a1.5,1.5,0,0,0-1.517-1.477h-20.1Z" transform="translate(-12.126 -20.073)" fill="none" stroke="#000" stroke-linecap="round" stroke-linejoin="round" stroke-miterlimit="10" stroke-width="1"/><line x2="6.014" transform="translate(16.9 7.805)" fill="none" stroke="#000" stroke-linecap="round" stroke-linejoin="round" stroke-miterlimit="10" stroke-width="1"/><line x2="3.882" transform="translate(0.22 7.805)" fill="none" stroke="#000" stroke-linecap="round" stroke-linejoin="round" stroke-miterlimit="10" stroke-width="1"/><circle cx="4.825" cy="4.825" r="4.825" transform="translate(5.658 5.1)" fill="none" stroke="#000" stroke-linecap="round" stroke-linejoin="round" stroke-miterlimit="10" stroke-width="1"/><circle cx="2.412" cy="2.412" r="2.412" transform="translate(8.07 7.512)" fill="none" stroke="#000" stroke-linecap="round" stroke-linejoin="round" stroke-miterlimit="10" stroke-width="1"/><path d="M22.774,18.034v-.52a.5.5,0,0,0-.506-.493h-3.7a.5.5,0,0,0-.506.493v.52" transform="translate(-15.196 -17.021)" fill="none" stroke="#000" stroke-linecap="round" stroke-linejoin="round" stroke-miterlimit="10" stroke-width="1"/></g></g></svg>