<svg xmlns="http://www.w3.org/2000/svg" width="23.043" height="21" viewBox="0 0 23.043 21"><g transform="translate(-10.5 -10.5)"><g transform="translate(11 11.045)"><path d="M34,13.311V12.2a1.1,1.1,0,0,1,1.1-1.1h0a1.1,1.1,0,0,1,1.1,1.1v1.1" transform="translate(-23.86 -11.101)" fill="#d22f27"/><path d="M12.1,33.833h0a1.1,1.1,0,0,1-1.1-1.1V29.2a1.1,1.1,0,0,1,1.1-1.1h0a1.1,1.1,0,0,1,1.1,1.1V32.73A1.1,1.1,0,0,1,12.1,33.833Z" transform="translate(-11 -20.607)" fill="#d0cfce"/><path d="M57.1,33.833h0a1.1,1.1,0,0,0,1.1-1.1V29.2a1.1,1.1,0,0,0-1.1-1.1h0A1.1,1.1,0,0,0,56,29.2V32.73A1.1,1.1,0,0,0,57.1,33.833Z" transform="translate(-36.161 -20.607)" fill="#d0cfce"/><path d="M29.865,33.747h-10.1A3.78,3.78,0,0,1,16,29.978v-10.1a3.78,3.78,0,0,1,3.769-3.769h10.1a3.78,3.78,0,0,1,3.769,3.769v10.1A3.78,3.78,0,0,1,29.865,33.747Z" transform="translate(-13.796 -13.903)" fill="#d0cfce"/><path d="M35.5,33.746h5.857c1.75,0,3.181-1.7,3.181-3.769v-10.1c0-2.073-1.432-3.769-3.181-3.769H40.318" transform="translate(-24.698 -13.903)" fill="#9b9b9a"/><circle cx="1.249" cy="1.249" r="1.249" transform="translate(13.667 6.643)" fill="#fff"/><circle cx="1.249" cy="1.249" r="1.249" transform="translate(5.952 6.642)" fill="#fff"/><path d="M32.758,43.027H25.263A1.769,1.769,0,0,1,23.5,41.264h0A1.769,1.769,0,0,1,25.263,39.5h7.495a1.769,1.769,0,0,1,1.763,1.763h0A1.769,1.769,0,0,1,32.758,43.027Z" transform="translate(-17.989 -26.98)" fill="#fff"/></g><g transform="translate(11 11)"><path d="M36.5,21.454" transform="translate(-25.258 -16.845)" fill="none" stroke="#000" stroke-linecap="round" stroke-linejoin="round" stroke-miterlimit="2" stroke-width="1"/><path d="M34,13.209V12.1A1.1,1.1,0,0,1,35.1,11h0a1.1,1.1,0,0,1,1.1,1.1v1.1" transform="translate(-23.86 -11)" fill="none" stroke="#000" stroke-linecap="round" stroke-linejoin="round" stroke-miterlimit="2" stroke-width="1"/><path d="M29.865,33.634h-10.1A3.78,3.78,0,0,1,16,29.865v-10.1A3.78,3.78,0,0,1,19.769,16h10.1a3.78,3.78,0,0,1,3.769,3.769v10.1A3.78,3.78,0,0,1,29.865,33.634Z" transform="translate(-13.796 -13.796)" fill="none" stroke="#000" stroke-linecap="round" stroke-linejoin="round" stroke-miterlimit="2" stroke-width="1"/><circle cx="1.249" cy="1.249" r="1.249" transform="translate(13.667 6.687)" fill="none" stroke="#000" stroke-linecap="round" stroke-linejoin="round" stroke-miterlimit="2" stroke-width="1"/><circle cx="1.249" cy="1.249" r="1.249" transform="translate(5.952 6.687)" fill="none" stroke="#000" stroke-linecap="round" stroke-linejoin="round" stroke-miterlimit="2" stroke-width="1"/><path d="M32.758,43.027H25.263A1.769,1.769,0,0,1,23.5,41.263h0A1.769,1.769,0,0,1,25.263,39.5h7.495a1.769,1.769,0,0,1,1.763,1.763h0A1.769,1.769,0,0,1,32.758,43.027Z" transform="translate(-17.989 -26.935)" fill="none" stroke="#000" stroke-miterlimit="2" stroke-width="1"/><path d="M12.1,33.731h0a1.1,1.1,0,0,1-1.1-1.1V29.1A1.1,1.1,0,0,1,12.1,28h0a1.1,1.1,0,0,1,1.1,1.1v3.527A1.1,1.1,0,0,1,12.1,33.731Z" transform="translate(-11 -20.505)" fill="none" stroke="#000" stroke-linecap="round" stroke-linejoin="round" stroke-miterlimit="2" stroke-width="1"/><path d="M57.1,33.731h0a1.1,1.1,0,0,0,1.1-1.1V29.1A1.1,1.1,0,0,0,57.1,28h0A1.1,1.1,0,0,0,56,29.1v3.527A1.1,1.1,0,0,0,57.1,33.731Z" transform="translate(-36.161 -20.505)" fill="none" stroke="#000" stroke-linecap="round" stroke-linejoin="round" stroke-miterlimit="2" stroke-width="1"/><path d="M36.5,37.5" transform="translate(-25.258 -25.817)" fill="none" stroke="#000" stroke-miterlimit="10" stroke-width="1"/><path d="M36.5,57.5" transform="translate(-25.258 -37)" fill="none" stroke="#000" stroke-miterlimit="10" stroke-width="1"/><line y2="3" transform="translate(7.021 13)" fill="none" stroke="#000" stroke-linecap="round" stroke-linejoin="round" stroke-miterlimit="2" stroke-width="1"/><line y2="3" transform="translate(10.021 13)" fill="none" stroke="#000" stroke-linecap="round" stroke-linejoin="round" stroke-miterlimit="2" stroke-width="1"/><line y2="3" transform="translate(12.021 13)" fill="none" stroke="#000" stroke-linecap="round" stroke-linejoin="round" stroke-miterlimit="2" stroke-width="1"/><line y2="3" transform="translate(14.021 13)" fill="none" stroke="#000" stroke-linecap="round" stroke-linejoin="round" stroke-miterlimit="2" stroke-width="1"/></g></g></svg>