<svg xmlns="http://www.w3.org/2000/svg" width="27.107" height="25.024" viewBox="0 0 27.107 25.024"><g transform="translate(-10.425 -12)"><g transform="translate(10.886 12)"><circle cx="12.512" cy="12.512" r="12.512" transform="translate(0.581)" fill="#fcea2b"/><path d="M18.266,18.414l4.163-.626-2.036,3.685,1.882,3.766-4.134-.8-3,2.954-.519-4.178-3.736-1.941L14.7,19.492l.691-4.153Z" transform="translate(-10.886 -13.598)" fill="#f1b31c"/><path d="M43.059,18.414,38.9,17.788l2.036,3.685L39.05,25.24l4.134-.8,3,2.954.519-4.178,3.736-1.941-3.813-1.785-.691-4.153Z" transform="translate(-24.293 -13.598)" fill="#f1b31c"/><path d="M36.574,46.294c-.933,2.226-3.311,3.769-7.142,3.769-3.863,0-6.272-1.58-7.194-3.837A34.414,34.414,0,0,0,36.574,46.294Z" transform="translate(-16.319 -28.383)" fill="#ea5a47"/><path d="M36.63,41.866a6,6,0,0,1-.454,2.341,34.413,34.413,0,0,1-14.337-.068,6,6,0,0,1-.433-2.273h.057a35.817,35.817,0,0,0,15.061.036Z" transform="translate(-15.922 -26.296)" fill="#fff"/></g><g transform="translate(10.925 12.521)"><path d="M50.053,44.037" transform="translate(-29.673 -27.856)" fill="none" stroke="#000" stroke-linecap="round" stroke-linejoin="round" stroke-miterlimit="10" stroke-width="1"/><path d="M22,44.037" transform="translate(-16.244 -27.856)" fill="none" stroke="#000" stroke-linecap="round" stroke-linejoin="round" stroke-miterlimit="10" stroke-width="1"/><path d="M36.63,41.866a6,6,0,0,1-.454,2.341,34.413,34.413,0,0,1-14.337-.068,6,6,0,0,1-.433-2.273h.057a35.817,35.817,0,0,0,15.061.036Z" transform="translate(-15.961 -26.817)" fill="none" stroke="#000" stroke-linecap="round" stroke-linejoin="round" stroke-miterlimit="10" stroke-width="1"/><path d="M36.574,46.294c-.933,2.226-3.311,3.769-7.142,3.769-3.863,0-6.272-1.58-7.194-3.837A34.414,34.414,0,0,0,36.574,46.294Z" transform="translate(-16.359 -28.904)" fill="none" stroke="#000" stroke-linejoin="round" stroke-miterlimit="10" stroke-width="1"/><path d="M49.993,46.236l-.255.063" transform="translate(-29.522 -28.909)" fill="none" stroke="#000" stroke-linejoin="round" stroke-miterlimit="10" stroke-width="1"/><path d="M22.1,46.192c-.1-.026-.146-.036-.146-.036" transform="translate(-16.225 -28.87)" fill="none" stroke="#000" stroke-linejoin="round" stroke-miterlimit="10" stroke-width="1"/><path d="M36.2,14.334a12.012,12.012,0,0,0-11.2.1l-.078.043" transform="translate(-17.645 -13)" fill="none" stroke="#000" stroke-linecap="round" stroke-linejoin="round" stroke-miterlimit="10" stroke-width="1"/><path d="M13.1,33a11.991,11.991,0,1,0,23.781.017" transform="translate(-11.937 -22.571)" fill="none" stroke="#000" stroke-linecap="round" stroke-linejoin="round" stroke-miterlimit="10" stroke-width="1"/><path d="M18.342,18.414l4.163-.626-2.036,3.685,1.882,3.766-4.134-.8-3,2.954L14.7,23.218l-3.736-1.941,3.813-1.785.691-4.153Z" transform="translate(-10.961 -14.12)" fill="none" stroke="#000" stroke-linecap="round" stroke-linejoin="round" stroke-miterlimit="10" stroke-width="1"/><path d="M43.059,18.414,38.9,17.788l2.036,3.685L39.05,25.24l4.134-.8,3,2.954.519-4.178,3.736-1.941-3.813-1.785-.691-4.153Z" transform="translate(-24.332 -14.12)" fill="none" stroke="#000" stroke-linecap="round" stroke-linejoin="round" stroke-miterlimit="10" stroke-width="1"/></g></g></svg>