<svg xmlns="http://www.w3.org/2000/svg" width="22.904" height="23.467" viewBox="0 0 22.904 23.467"><g transform="translate(-7.561 -6.957)"><g transform="translate(8.045 7.601)"><path d="M24.333,7.859c-3.34.062-7.237,1.608-7.3,7.732l-.186,1.288c.371-.062,1.265.828,1.636.889,1.175.062,1.569-.557,2.559,0S23.344,18,24.4,18s2.238.322,3.228-.235,2.177.062,3.29,0h1.1l-.439-2.177C31.571,9.468,27.674,7.921,24.333,7.859Z" transform="translate(-13.383 -7.859)" fill="#ea5a47"/><path d="M28.865,30.211S31.79,32.039,27.4,32.77c.253-.067,3.27-.028-6.215.731a12.867,12.867,0,0,0-2.559,0c-.506.07-.622-.013-2.925,0a17.282,17.282,0,0,1-5.159-.528c-1.1-.366-1.787-.569-1.787-.569-.264.151-1.829-1.2.731-2.193-.029-.127-.949.308,9.5.731C21.467,31.043,28.865,30.211,28.865,30.211Z" transform="translate(-8.045 -21.399)" fill="#d22f27"/></g><g transform="translate(8.063 7.433)"><path d="M34.281,8.975V14.7a6.014,6.014,0,0,1-5.849,0V8.888" transform="translate(-20.424 -8.315)" fill="none" stroke="#000" stroke-miterlimit="10" stroke-width="1"/><path d="M16.825,16.634c0-3.3,1.85-7.23,4.5-8.47a7.036,7.036,0,0,1,3-.669,7.783,7.783,0,0,1,7.494,8.042c0,.172.01.927,0,1.1" transform="translate(-13.387 -7.47)" fill="none" stroke="#000" stroke-linecap="round" stroke-miterlimit="10" stroke-width="1"/><path d="M18.218,41.389s.366,8.408,6.946,8.408,6.946-8.408,6.946-8.408" transform="translate(-14.231 -28.022)" fill="none" stroke="#000" stroke-linecap="round" stroke-miterlimit="10" stroke-width="1"/><g transform="translate(0 9.006)"><path d="M45.257,30.31c.01,0,1.52-.083,1.594,1.071.026.409-.2,1.036-1.228,1.281a53.675,53.675,0,0,1-9.724.912" transform="translate(-24.952 -30.309)" fill="none" stroke="#000" stroke-linecap="round" stroke-miterlimit="10" stroke-width="1"/><path d="M9.686,30.31c-.01,0-1.52-.083-1.594,1.071-.026.409.2,1.036,1.228,1.281a53.675,53.675,0,0,0,9.724.912" transform="translate(-8.09 -30.309)" fill="none" stroke="#000" stroke-linecap="round" stroke-miterlimit="10" stroke-width="1"/></g><path d="M27.5,32.1a34.02,34.02,0,0,0,6.58,0" transform="translate(-19.862 -22.391)" fill="none" stroke="#000" stroke-linecap="round" stroke-linejoin="round" stroke-width="1"/><path d="M28.432,60.922a5.775,5.775,0,0,0,5.849,0" transform="translate(-20.425 -39.865)" fill="none" stroke="#000" stroke-linecap="round" stroke-miterlimit="10" stroke-width="2"/><path d="M28.635,8.006s3.289-1.332,5.564.065l.082,5.784a5.809,5.809,0,0,1-5.849,0Z" transform="translate(-20.424 -7.433)"/></g><g transform="translate(17.639 9.382)"><line y2="3.107" transform="translate(1.371)" fill="none" stroke="#fff" stroke-linecap="round" stroke-miterlimit="10" stroke-width="2"/><line x2="2.742" transform="translate(0 1.554)" fill="none" stroke="#fff" stroke-linecap="round" stroke-miterlimit="10" stroke-width="2"/></g></g></svg>