<svg xmlns="http://www.w3.org/2000/svg" width="41.893" height="34.02" viewBox="0 0 41.893 34.02"><g transform="translate(-1409.253 -479.604)"><g transform="matrix(0.899, -0.438, 0.438, 0.899, 1417.007, 487.924)"><g transform="translate(-1.287 -1.85)"><ellipse cx="11.984" cy="9.13" rx="11.984" ry="9.13" transform="matrix(0.628, -0.779, 0.779, 0.628, 0, 18.661)" fill="#fcea2b"/><path d="M36.659,9.712a7.718,7.718,0,0,0-5.49-1.593,7.422,7.422,0,0,1,4.16,1.593c3.926,3.164,3.741,9.907-.412,15.06a13.391,13.391,0,0,1-9.139,5.194c3.522.264,7.576-1.605,10.469-5.194C40.4,19.619,40.585,12.876,36.659,9.712Z" transform="translate(-14.606 -3.983)" fill="#fff"/><path d="M31.62,12.325c-.2-.164-.42-.322-.643-.47a.383.383,0,0,0-.046-.019.425.425,0,0,0-.229-.042.381.381,0,0,0-.217.1.389.389,0,0,0-.039.028c-.008.008-.01.019-.017.028s-.017.014-.023.024a.39.39,0,0,0-.018.045.424.424,0,0,0-.042.232.4.4,0,0,0,.018.076.344.344,0,0,0,.078.139.389.389,0,0,0,.029.04c3.417,3.152,3.061,9.385-.811,14.189-4,4.968-10.307,6.555-14.049,3.539a.4.4,0,0,0-.077-.04l-.023-.012a.4.4,0,0,0-.124-.031l-.033,0a.378.378,0,0,0-.244.081.388.388,0,0,0-.04.024c-.008.007-.011.017-.018.025s-.015.01-.022.018a.386.386,0,0,0-.02.038.4.4,0,0,0-.048.093.385.385,0,0,0-.01.04.4.4,0,0,0-.011.122c0,.008,0,.016,0,.024a.4.4,0,0,0,.04.129l.011.018a.393.393,0,0,0,.045.076,8.284,8.284,0,0,0,.944.891,8.722,8.722,0,0,0,5.548,1.88,13.392,13.392,0,0,0,10.125-5.248C35.968,23.007,35.951,15.815,31.62,12.325Z" transform="translate(-8.242 -6.161)" fill="#f1b31c"/><path d="M20.652,30.794c.03-.1.251-.914.281-1.009,2.443.044,2.563-.038,2.926-1.242.686-2.274.885-2.681,1.571-4.954.24-.8.2-.972-.945-1.19l-.7-.128c.026-.084.182-.856.208-.94A38.9,38.9,0,0,0,29.038,21l-2.27,7.843c-.354,1.224-.311,1.322,2.034,1.775-.027.1-.247.916-.274,1.013Z" transform="translate(-11.596 -11.571)" fill="#f1b31c"/></g><g transform="translate(-1.287 -1.85)"><path d="M31.325,12.777q.314.207.612.447c4.161,3.354,4.15,10.271-.025,15.451S20.98,35.334,16.819,31.98a7.88,7.88,0,0,1-.9-.846" transform="translate(-8.819 -6.739)" fill="none" stroke="#000" stroke-miterlimit="10" stroke-width="1"/><ellipse cx="11.984" cy="9.13" rx="11.984" ry="9.13" transform="matrix(0.628, -0.779, 0.779, 0.628, 0, 18.661)" fill="none" stroke="#000" stroke-miterlimit="10" stroke-width="1"/><line x2="1.356" y2="1.145" transform="translate(21.737 20.789)" fill="none" stroke="#000" stroke-miterlimit="10" stroke-width="1"/><line x2="1.196" y2="1.285" transform="translate(20.31 22.335)" fill="none" stroke="#000" stroke-miterlimit="10" stroke-width="1"/><line x2="0.982" y2="1.371" transform="translate(18.8 23.592)" fill="none" stroke="#000" stroke-miterlimit="10" stroke-width="1"/><line x2="0.773" y2="1.38" transform="translate(17.143 24.697)" fill="none" stroke="#000" stroke-miterlimit="10" stroke-width="1"/><line x2="1.44" y2="0.997" transform="translate(22.836 19.245)" fill="none" stroke="#000" stroke-miterlimit="10" stroke-width="1"/><path d="M20.652,30.794c.03-.1.251-.914.281-1.009,2.443.044,2.563-.038,2.926-1.242.686-2.274.885-2.681,1.571-4.954.24-.8.2-.972-.945-1.19l-.7-.128c.026-.084.182-.856.208-.94A38.9,38.9,0,0,0,29.038,21l-2.27,7.843c-.354,1.224-.311,1.322,2.034,1.775-.027.1-.247.916-.274,1.013Z" transform="translate(-11.596 -11.571)" fill="none" stroke="#000" stroke-linecap="round" stroke-linejoin="round" stroke-width="1"/></g></g><g transform="matrix(0.839, 0.545, -0.545, 0.839, 1421.641, 493.952)"><g transform="translate(-1.287 -1.85)"><ellipse cx="6.545" cy="4.986" rx="6.545" ry="4.986" transform="matrix(0.628, -0.779, 0.779, 0.628, 0, 10.191)" fill="#fcea2b"/><path d="M31.72,8.973a4.215,4.215,0,0,0-3-.87,4.053,4.053,0,0,1,2.272.87c2.144,1.728,2.043,5.41-.225,8.224a7.313,7.313,0,0,1-4.991,2.837A7.014,7.014,0,0,0,31.495,17.2C33.763,14.383,33.864,10.7,31.72,8.973Z" transform="translate(-19.677 -5.844)" fill="#fff"/><path d="M24.049,12.083c-.111-.09-.229-.176-.351-.256l-.025-.01a.232.232,0,0,0-.125-.023.208.208,0,0,0-.119.053l-.021.015s-.006.011-.009.015-.009.008-.013.013a.213.213,0,0,0-.01.025.231.231,0,0,0-.023.127.22.22,0,0,0,.01.041.188.188,0,0,0,.043.076l.016.022c1.866,1.721,1.672,5.125-.443,7.749-2.187,2.713-5.629,3.58-7.672,1.933a.217.217,0,0,0-.042-.022l-.013-.007a.219.219,0,0,0-.068-.017l-.018,0a.207.207,0,0,0-.133.044l-.022.013s-.006.009-.01.014-.008.006-.012.01l-.011.021a.216.216,0,0,0-.026.051.21.21,0,0,0-.005.022.219.219,0,0,0-.006.067s0,.009,0,.013a.218.218,0,0,0,.022.07l.006.01a.215.215,0,0,0,.025.041,4.524,4.524,0,0,0,.515.486A4.763,4.763,0,0,0,18.54,23.7a7.314,7.314,0,0,0,5.529-2.866C26.423,17.917,26.414,13.989,24.049,12.083Z" transform="translate(-11.282 -8.717)" fill="#f1b31c"/><path d="M20.652,26.35c.016-.052.137-.5.153-.551,1.334.024,1.4-.021,1.6-.678.374-1.242.484-1.464.858-2.706.131-.435.108-.531-.516-.65l-.38-.07c.014-.046.1-.468.114-.514A21.245,21.245,0,0,0,25.232,21l-1.24,4.283c-.194.669-.17.722,1.111.97-.015.053-.135.5-.15.553Z" transform="translate(-15.707 -15.853)" fill="#f1b31c"/></g><g transform="translate(-1.287 -1.85)"><path d="M24.334,12.777q.172.113.334.244c2.272,1.831,2.266,5.609-.014,8.438s-5.97,3.637-8.242,1.805a4.3,4.3,0,0,1-.49-.462" transform="translate(-12.043 -9.48)" fill="none" stroke="#000" stroke-miterlimit="10" stroke-width="1"/><ellipse cx="6.545" cy="4.986" rx="6.545" ry="4.986" transform="matrix(0.628, -0.779, 0.779, 0.628, 0, 10.191)" fill="none" stroke="#000" stroke-miterlimit="10" stroke-width="1"/><line x2="0.741" y2="0.626" transform="translate(11.871 11.353)" fill="none" stroke="#000" stroke-miterlimit="10" stroke-width="1"/><line x2="0.653" y2="0.702" transform="translate(11.091 12.197)" fill="none" stroke="#000" stroke-miterlimit="10" stroke-width="1"/><line x2="0.536" y2="0.749" transform="translate(10.267 12.884)" fill="none" stroke="#000" stroke-miterlimit="10" stroke-width="1"/><line x2="0.422" y2="0.754" transform="translate(9.362 13.487)" fill="none" stroke="#000" stroke-miterlimit="10" stroke-width="1"/><line x2="0.786" y2="0.544" transform="translate(12.471 10.51)" fill="none" stroke="#000" stroke-miterlimit="10" stroke-width="1"/><path d="M20.652,26.35c.016-.052.137-.5.153-.551,1.334.024,1.4-.021,1.6-.678.374-1.242.484-1.464.858-2.706.131-.435.108-.531-.516-.65l-.38-.07c.014-.046.1-.468.114-.514A21.245,21.245,0,0,0,25.232,21l-1.24,4.283c-.194.669-.17.722,1.111.97-.015.053-.135.5-.15.553Z" transform="translate(-15.707 -15.853)" fill="none" stroke="#000" stroke-linecap="round" stroke-linejoin="round" stroke-width="1"/></g></g><g transform="matrix(0.999, 0.035, -0.035, 0.999, 1423.803, 494.779)"><g transform="translate(-1.287 -1.85)"><ellipse cx="6.98" cy="5.317" rx="6.98" ry="5.317" transform="matrix(0.628, -0.779, 0.779, 0.628, 0, 10.868)" fill="#fcea2b"/><path d="M32.115,9.032a4.5,4.5,0,0,0-3.2-.928,4.322,4.322,0,0,1,2.423.928c2.286,1.843,2.179,5.77-.24,8.771a7.8,7.8,0,0,1-5.323,3.025,7.48,7.48,0,0,0,6.1-3.025C34.294,14.8,34.4,10.875,32.115,9.032Z" transform="translate(-19.271 -5.695)" fill="#fff"/><path d="M24.654,12.1c-.119-.1-.245-.188-.374-.274l-.027-.011a.248.248,0,0,0-.134-.025.222.222,0,0,0-.127.057l-.023.016s-.006.011-.01.016-.01.008-.014.014a.227.227,0,0,0-.011.026.247.247,0,0,0-.025.135.235.235,0,0,0,.01.044.2.2,0,0,0,.045.081.227.227,0,0,0,.017.023c1.99,1.836,1.783,5.466-.472,8.264-2.332,2.893-6,3.818-8.182,2.061a.231.231,0,0,0-.045-.023l-.013-.007a.233.233,0,0,0-.072-.018l-.019,0a.22.22,0,0,0-.142.047l-.023.014s-.006.01-.011.014-.009.006-.013.01l-.011.022a.231.231,0,0,0-.028.054.224.224,0,0,0-.006.023.234.234,0,0,0-.006.071s0,.009,0,.014a.232.232,0,0,0,.023.075l.006.011a.229.229,0,0,0,.026.044,4.825,4.825,0,0,0,.55.519A5.08,5.08,0,0,0,18.779,24.5a7.8,7.8,0,0,0,5.9-3.057C27.187,18.324,27.177,14.135,24.654,12.1Z" transform="translate(-11.039 -8.513)" fill="#f1b31c"/><path d="M20.652,26.706c.017-.056.146-.532.164-.588,1.423.025,1.493-.022,1.7-.723.4-1.324.516-1.561.915-2.886.14-.464.115-.566-.551-.693l-.406-.075c.015-.049.106-.5.121-.548A22.658,22.658,0,0,0,25.536,21l-1.322,4.568c-.206.713-.181.77,1.185,1.034-.016.056-.144.533-.16.59Z" transform="translate(-15.378 -15.51)" fill="#f1b31c"/></g><g transform="translate(-1.287 -1.85)"><path d="M24.893,12.777q.183.121.356.26c2.423,1.953,2.417,5.982-.015,9s-6.367,3.879-8.79,1.925a4.59,4.59,0,0,1-.522-.493" transform="translate(-11.785 -9.261)" fill="none" stroke="#000" stroke-miterlimit="10" stroke-width="1"/><ellipse cx="6.98" cy="5.317" rx="6.98" ry="5.317" transform="matrix(0.628, -0.779, 0.779, 0.628, 0, 10.868)" fill="none" stroke="#000" stroke-miterlimit="10" stroke-width="1"/><line x2="0.79" y2="0.667" transform="translate(12.66 12.108)" fill="none" stroke="#000" stroke-miterlimit="10" stroke-width="1"/><line x2="0.696" y2="0.748" transform="translate(11.829 13.008)" fill="none" stroke="#000" stroke-miterlimit="10" stroke-width="1"/><line x2="0.572" y2="0.799" transform="translate(10.949 13.74)" fill="none" stroke="#000" stroke-miterlimit="10" stroke-width="1"/><line x2="0.45" y2="0.804" transform="translate(9.984 14.384)" fill="none" stroke="#000" stroke-miterlimit="10" stroke-width="1"/><line x2="0.839" y2="0.58" transform="translate(13.3 11.209)" fill="none" stroke="#000" stroke-miterlimit="10" stroke-width="1"/><path d="M20.652,26.706c.017-.056.146-.532.164-.588,1.423.025,1.493-.022,1.7-.723.4-1.324.516-1.561.915-2.886.14-.464.115-.566-.551-.693l-.406-.075c.015-.049.106-.5.121-.548A22.658,22.658,0,0,0,25.536,21l-1.322,4.568c-.206.713-.181.77,1.185,1.034-.016.056-.144.533-.16.59Z" transform="translate(-15.378 -15.51)" fill="none" stroke="#000" stroke-linecap="round" stroke-linejoin="round" stroke-width="1"/></g></g><g transform="matrix(0.819, -0.574, 0.574, 0.819, 1415.719, 496.159)"><g transform="translate(-1.287 -1.85)"><ellipse cx="4.757" cy="3.624" rx="4.757" ry="3.624" transform="matrix(0.628, -0.779, 0.779, 0.628, 0, 7.408)" fill="#fcea2b"/><path d="M30.1,8.73A3.064,3.064,0,0,0,27.918,8.1a2.946,2.946,0,0,1,1.651.632c1.558,1.256,1.485,3.933-.164,5.978a5.316,5.316,0,0,1-3.628,2.062,5.1,5.1,0,0,0,4.156-2.062C31.582,12.662,31.655,9.986,30.1,8.73Z" transform="translate(-21.343 -6.455)" fill="#fff"/><path d="M21.561,12c-.081-.065-.167-.128-.255-.186l-.018-.007a.169.169,0,0,0-.091-.017.151.151,0,0,0-.086.039l-.015.011s0,.008-.007.011-.007.006-.009.009a.155.155,0,0,0-.007.018.168.168,0,0,0-.017.092.16.16,0,0,0,.007.03.137.137,0,0,0,.031.055l.011.016c1.356,1.251,1.215,3.726-.322,5.633-1.59,1.972-4.092,2.6-5.577,1.4a.158.158,0,0,0-.031-.016l-.009,0a.159.159,0,0,0-.049-.012H15.1a.15.15,0,0,0-.1.032l-.016.01s0,.007-.007.01-.006,0-.009.007l-.008.015a.157.157,0,0,0-.019.037.153.153,0,0,0,0,.016.159.159,0,0,0,0,.049s0,.006,0,.01a.158.158,0,0,0,.016.051l0,.007a.156.156,0,0,0,.018.03,3.289,3.289,0,0,0,.375.354,3.462,3.462,0,0,0,2.2.746,5.316,5.316,0,0,0,4.019-2.083C23.287,16.244,23.281,13.389,21.561,12Z" transform="translate(-12.281 -9.557)" fill="#f1b31c"/><path d="M20.652,24.89c.012-.038.1-.363.112-.4.97.017,1.017-.015,1.161-.493.272-.9.351-1.064.624-1.967.1-.316.079-.386-.375-.472l-.276-.051c.01-.033.072-.34.083-.373a15.444,15.444,0,0,0,2-.129l-.9,3.113c-.141.486-.123.525.808.7-.011.038-.1.363-.109.4Z" transform="translate(-17.057 -17.26)" fill="#f1b31c"/></g><g transform="translate(-1.287 -1.85)"><path d="M22.037,12.777q.125.082.243.177c1.652,1.331,1.647,4.077-.01,6.133s-4.34,2.644-5.991,1.312a3.128,3.128,0,0,1-.356-.336" transform="translate(-13.103 -10.38)" fill="none" stroke="#000" stroke-miterlimit="10" stroke-width="1"/><ellipse cx="4.757" cy="3.624" rx="4.757" ry="3.624" transform="matrix(0.628, -0.779, 0.779, 0.628, 0, 7.408)" fill="none" stroke="#000" stroke-miterlimit="10" stroke-width="1"/><line x2="0.538" y2="0.455" transform="translate(8.629 8.253)" fill="none" stroke="#000" stroke-miterlimit="10" stroke-width="1"/><line x2="0.475" y2="0.51" transform="translate(8.062 8.866)" fill="none" stroke="#000" stroke-miterlimit="10" stroke-width="1"/><line x2="0.39" y2="0.544" transform="translate(7.463 9.365)" fill="none" stroke="#000" stroke-miterlimit="10" stroke-width="1"/><line x2="0.307" y2="0.548" transform="translate(6.805 9.804)" fill="none" stroke="#000" stroke-miterlimit="10" stroke-width="1"/><line x2="0.572" y2="0.396" transform="translate(9.065 7.64)" fill="none" stroke="#000" stroke-miterlimit="10" stroke-width="1"/><path d="M20.652,24.89c.012-.038.1-.363.112-.4.97.017,1.017-.015,1.161-.493.272-.9.351-1.064.624-1.967.1-.316.079-.386-.375-.472l-.276-.051c.01-.033.072-.34.083-.373a15.444,15.444,0,0,0,2-.129l-.9,3.113c-.141.486-.123.525.808.7-.011.038-.1.363-.109.4Z" transform="translate(-17.057 -17.26)" fill="none" stroke="#000" stroke-linecap="round" stroke-linejoin="round" stroke-width="1"/></g></g><g transform="translate(1413.438 497.297) rotate(25)"><g transform="translate(-1.287 -1.85)"><ellipse cx="4.757" cy="3.624" rx="4.757" ry="3.624" transform="matrix(0.628, -0.779, 0.779, 0.628, 0, 7.408)" fill="#fcea2b"/><path d="M30.1,8.73A3.064,3.064,0,0,0,27.918,8.1a2.946,2.946,0,0,1,1.651.632c1.558,1.256,1.485,3.933-.164,5.978a5.316,5.316,0,0,1-3.628,2.062,5.1,5.1,0,0,0,4.156-2.062C31.582,12.662,31.655,9.986,30.1,8.73Z" transform="translate(-21.343 -6.455)" fill="#fff"/><path d="M21.561,12c-.081-.065-.167-.128-.255-.186l-.018-.007a.169.169,0,0,0-.091-.017.151.151,0,0,0-.086.039l-.015.011s0,.008-.007.011-.007.006-.009.009a.155.155,0,0,0-.007.018.168.168,0,0,0-.017.092.16.16,0,0,0,.007.03.137.137,0,0,0,.031.055l.011.016c1.356,1.251,1.215,3.726-.322,5.633-1.59,1.972-4.092,2.6-5.577,1.4a.158.158,0,0,0-.031-.016l-.009,0a.159.159,0,0,0-.049-.012H15.1a.15.15,0,0,0-.1.032l-.016.01s0,.007-.007.01-.006,0-.009.007l-.008.015a.157.157,0,0,0-.019.037.153.153,0,0,0,0,.016.159.159,0,0,0,0,.049s0,.006,0,.01a.158.158,0,0,0,.016.051l0,.007a.156.156,0,0,0,.018.03,3.289,3.289,0,0,0,.375.354,3.462,3.462,0,0,0,2.2.746,5.316,5.316,0,0,0,4.019-2.083C23.287,16.244,23.281,13.389,21.561,12Z" transform="translate(-12.281 -9.557)" fill="#f1b31c"/><path d="M20.652,24.89c.012-.038.1-.363.112-.4.97.017,1.017-.015,1.161-.493.272-.9.351-1.064.624-1.967.1-.316.079-.386-.375-.472l-.276-.051c.01-.033.072-.34.083-.373a15.444,15.444,0,0,0,2-.129l-.9,3.113c-.141.486-.123.525.808.7-.011.038-.1.363-.109.4Z" transform="translate(-17.057 -17.26)" fill="#f1b31c"/></g><g transform="translate(-1.287 -1.85)"><path d="M22.037,12.777q.125.082.243.177c1.652,1.331,1.647,4.077-.01,6.133s-4.34,2.644-5.991,1.312a3.128,3.128,0,0,1-.356-.336" transform="translate(-13.103 -10.38)" fill="none" stroke="#000" stroke-miterlimit="10" stroke-width="1"/><ellipse cx="4.757" cy="3.624" rx="4.757" ry="3.624" transform="matrix(0.628, -0.779, 0.779, 0.628, 0, 7.408)" fill="none" stroke="#000" stroke-miterlimit="10" stroke-width="1"/><line x2="0.538" y2="0.455" transform="translate(8.629 8.253)" fill="none" stroke="#000" stroke-miterlimit="10" stroke-width="1"/><line x2="0.475" y2="0.51" transform="translate(8.062 8.866)" fill="none" stroke="#000" stroke-miterlimit="10" stroke-width="1"/><line x2="0.39" y2="0.544" transform="translate(7.463 9.365)" fill="none" stroke="#000" stroke-miterlimit="10" stroke-width="1"/><line x2="0.307" y2="0.548" transform="translate(6.805 9.804)" fill="none" stroke="#000" stroke-miterlimit="10" stroke-width="1"/><line x2="0.572" y2="0.396" transform="translate(9.065 7.64)" fill="none" stroke="#000" stroke-miterlimit="10" stroke-width="1"/><path d="M20.652,24.89c.012-.038.1-.363.112-.4.97.017,1.017-.015,1.161-.493.272-.9.351-1.064.624-1.967.1-.316.079-.386-.375-.472l-.276-.051c.01-.033.072-.34.083-.373a15.444,15.444,0,0,0,2-.129l-.9,3.113c-.141.486-.123.525.808.7-.011.038-.1.363-.109.4Z" transform="translate(-17.057 -17.26)" fill="none" stroke="#000" stroke-linecap="round" stroke-linejoin="round" stroke-width="1"/></g></g><g transform="translate(1428.416 502.665) rotate(2)"><g transform="translate(-1.287 -1.85)"><ellipse cx="4.757" cy="3.624" rx="4.757" ry="3.624" transform="matrix(0.628, -0.779, 0.779, 0.628, 0, 7.408)" fill="#fcea2b"/><path d="M30.1,8.73A3.064,3.064,0,0,0,27.918,8.1a2.946,2.946,0,0,1,1.651.632c1.558,1.256,1.485,3.933-.164,5.978a5.316,5.316,0,0,1-3.628,2.062,5.1,5.1,0,0,0,4.156-2.062C31.582,12.662,31.655,9.986,30.1,8.73Z" transform="translate(-21.343 -6.455)" fill="#fff"/><path d="M21.561,12c-.081-.065-.167-.128-.255-.186l-.018-.007a.169.169,0,0,0-.091-.017.151.151,0,0,0-.086.039l-.015.011s0,.008-.007.011-.007.006-.009.009a.155.155,0,0,0-.007.018.168.168,0,0,0-.017.092.16.16,0,0,0,.007.03.137.137,0,0,0,.031.055l.011.016c1.356,1.251,1.215,3.726-.322,5.633-1.59,1.972-4.092,2.6-5.577,1.4a.158.158,0,0,0-.031-.016l-.009,0a.159.159,0,0,0-.049-.012H15.1a.15.15,0,0,0-.1.032l-.016.01s0,.007-.007.01-.006,0-.009.007l-.008.015a.157.157,0,0,0-.019.037.153.153,0,0,0,0,.016.159.159,0,0,0,0,.049s0,.006,0,.01a.158.158,0,0,0,.016.051l0,.007a.156.156,0,0,0,.018.03,3.289,3.289,0,0,0,.375.354,3.462,3.462,0,0,0,2.2.746,5.316,5.316,0,0,0,4.019-2.083C23.287,16.244,23.281,13.389,21.561,12Z" transform="translate(-12.281 -9.557)" fill="#f1b31c"/><path d="M20.652,24.89c.012-.038.1-.363.112-.4.97.017,1.017-.015,1.161-.493.272-.9.351-1.064.624-1.967.1-.316.079-.386-.375-.472l-.276-.051c.01-.033.072-.34.083-.373a15.444,15.444,0,0,0,2-.129l-.9,3.113c-.141.486-.123.525.808.7-.011.038-.1.363-.109.4Z" transform="translate(-17.057 -17.26)" fill="#f1b31c"/></g><g transform="translate(-1.287 -1.85)"><path d="M22.037,12.777q.125.082.243.177c1.652,1.331,1.647,4.077-.01,6.133s-4.34,2.644-5.991,1.312a3.128,3.128,0,0,1-.356-.336" transform="translate(-13.103 -10.38)" fill="none" stroke="#000" stroke-miterlimit="10" stroke-width="1"/><ellipse cx="4.757" cy="3.624" rx="4.757" ry="3.624" transform="matrix(0.628, -0.779, 0.779, 0.628, 0, 7.408)" fill="none" stroke="#000" stroke-miterlimit="10" stroke-width="1"/><line x2="0.538" y2="0.455" transform="translate(8.629 8.253)" fill="none" stroke="#000" stroke-miterlimit="10" stroke-width="1"/><line x2="0.475" y2="0.51" transform="translate(8.062 8.866)" fill="none" stroke="#000" stroke-miterlimit="10" stroke-width="1"/><line x2="0.39" y2="0.544" transform="translate(7.463 9.365)" fill="none" stroke="#000" stroke-miterlimit="10" stroke-width="1"/><line x2="0.307" y2="0.548" transform="translate(6.805 9.804)" fill="none" stroke="#000" stroke-miterlimit="10" stroke-width="1"/><line x2="0.572" y2="0.396" transform="translate(9.065 7.64)" fill="none" stroke="#000" stroke-miterlimit="10" stroke-width="1"/><path d="M20.652,24.89c.012-.038.1-.363.112-.4.97.017,1.017-.015,1.161-.493.272-.9.351-1.064.624-1.967.1-.316.079-.386-.375-.472l-.276-.051c.01-.033.072-.34.083-.373a15.444,15.444,0,0,0,2-.129l-.9,3.113c-.141.486-.123.525.808.7-.011.038-.1.363-.109.4Z" transform="translate(-17.057 -17.26)" fill="none" stroke="#000" stroke-linecap="round" stroke-linejoin="round" stroke-width="1"/></g></g></g></svg>