<svg xmlns="http://www.w3.org/2000/svg" width="54.81" height="38.375" viewBox="0 0 54.81 38.375"><g transform="translate(-597.297 -295.297)"><g transform="translate(599.287 297.85)"><g transform="translate(-1.287 -1.85)"><ellipse cx="14.709" cy="11.206" rx="14.709" ry="11.206" transform="matrix(0.628, -0.779, 0.779, 0.628, 0, 22.904)" fill="#fcea2b"/><path d="M39.133,10.083a9.473,9.473,0,0,0-6.738-1.955A9.109,9.109,0,0,1,37.5,10.083c4.818,3.884,4.592,12.159-.506,18.484a16.436,16.436,0,0,1-11.217,6.375c4.322.324,9.3-1.97,12.849-6.375C43.725,22.242,43.951,13.966,39.133,10.083Z" transform="translate(-12.066 -3.051)" fill="#fff"/><path d="M35.413,12.446c-.25-.2-.516-.4-.789-.576a.47.47,0,0,0-.056-.023.522.522,0,0,0-.282-.052.468.468,0,0,0-.267.119.477.477,0,0,0-.048.035c-.01.01-.013.024-.021.035s-.021.017-.029.029a.478.478,0,0,0-.022.055.52.52,0,0,0-.052.285.5.5,0,0,0,.022.093.423.423,0,0,0,.1.17.477.477,0,0,0,.035.049c4.194,3.869,3.757,11.519-1,17.416-4.915,6.1-12.651,8.045-17.243,4.343a.487.487,0,0,0-.094-.049l-.028-.015a.491.491,0,0,0-.152-.038l-.041,0a.464.464,0,0,0-.3.1.476.476,0,0,0-.049.029c-.01.009-.014.021-.022.03s-.019.013-.026.022a.474.474,0,0,0-.024.046.486.486,0,0,0-.059.114.474.474,0,0,0-.012.049.492.492,0,0,0-.013.15c0,.01,0,.02,0,.03a.489.489,0,0,0,.049.158c0,.008.009.015.013.023a.483.483,0,0,0,.055.093,10.168,10.168,0,0,0,1.158,1.093,10.705,10.705,0,0,0,6.81,2.308,16.438,16.438,0,0,0,12.427-6.442C40.749,25.557,40.728,16.73,35.413,12.446Z" transform="translate(-6.719 -4.881)" fill="#f1b31c"/><path d="M20.652,33.02c.037-.117.308-1.122.345-1.239,3,.053,3.146-.046,3.591-1.524.842-2.791,1.087-3.29,1.928-6.081.3-.979.243-1.193-1.16-1.46l-.855-.158c.032-.1.224-1.051.256-1.154a47.749,47.749,0,0,0,6.188-.4L28.159,30.63c-.435,1.5-.381,1.623,2.5,2.179-.033.119-.3,1.124-.337,1.243Z" transform="translate(-9.537 -9.426)" fill="#f1b31c"/></g><g transform="translate(-1.287 -1.85)"><path d="M34.828,12.777q.386.254.751.548c5.107,4.116,5.093,12.607-.031,18.964S22.13,40.463,17.023,36.347a9.672,9.672,0,0,1-1.1-1.039" transform="translate(-7.204 -5.367)" fill="none" stroke="#000" stroke-miterlimit="10" stroke-width="1"/><ellipse cx="14.709" cy="11.206" rx="14.709" ry="11.206" transform="matrix(0.628, -0.779, 0.779, 0.628, 0, 22.904)" fill="none" stroke="#000" stroke-miterlimit="10" stroke-width="1"/><line x2="1.664" y2="1.406" transform="translate(26.68 25.516)" fill="none" stroke="#000" stroke-miterlimit="10" stroke-width="1"/><line x2="1.468" y2="1.577" transform="translate(24.928 27.414)" fill="none" stroke="#000" stroke-miterlimit="10" stroke-width="1"/><line x2="1.205" y2="1.683" transform="translate(23.075 28.956)" fill="none" stroke="#000" stroke-miterlimit="10" stroke-width="1"/><line x2="0.949" y2="1.694" transform="translate(21.041 30.313)" fill="none" stroke="#000" stroke-miterlimit="10" stroke-width="1"/><line x2="1.768" y2="1.223" transform="translate(28.029 23.621)" fill="none" stroke="#000" stroke-miterlimit="10" stroke-width="1"/><path d="M20.652,33.02c.037-.117.308-1.122.345-1.239,3,.053,3.146-.046,3.591-1.524.842-2.791,1.087-3.29,1.928-6.081.3-.979.243-1.193-1.16-1.46l-.855-.158c.032-.1.224-1.051.256-1.154a47.749,47.749,0,0,0,6.188-.4L28.159,30.63c-.435,1.5-.381,1.623,2.5,2.179-.033.119-.3,1.124-.337,1.243Z" transform="translate(-9.537 -9.426)" fill="none" stroke="#000" stroke-linecap="round" stroke-linejoin="round" stroke-width="1"/></g></g><g transform="translate(-909.205 -7.536)"><g transform="matrix(0.899, -0.438, 0.438, 0.899, 1527.173, 316.46)"><g transform="translate(-1.287 -1.85)"><ellipse cx="11.984" cy="9.13" rx="11.984" ry="9.13" transform="matrix(0.628, -0.779, 0.779, 0.628, 0, 18.661)" fill="#fcea2b"/><path d="M36.659,9.712a7.718,7.718,0,0,0-5.49-1.593,7.422,7.422,0,0,1,4.16,1.593c3.926,3.164,3.741,9.907-.412,15.06a13.391,13.391,0,0,1-9.139,5.194c3.522.264,7.576-1.605,10.469-5.194C40.4,19.619,40.585,12.876,36.659,9.712Z" transform="translate(-14.606 -3.983)" fill="#fff"/><path d="M31.62,12.325c-.2-.164-.42-.322-.643-.47a.383.383,0,0,0-.046-.019.425.425,0,0,0-.229-.042.381.381,0,0,0-.217.1.389.389,0,0,0-.039.028c-.008.008-.01.019-.017.028s-.017.014-.023.024a.39.39,0,0,0-.018.045.424.424,0,0,0-.042.232.4.4,0,0,0,.018.076.344.344,0,0,0,.078.139.389.389,0,0,0,.029.04c3.417,3.152,3.061,9.385-.811,14.189-4,4.968-10.307,6.555-14.049,3.539a.4.4,0,0,0-.077-.04l-.023-.012a.4.4,0,0,0-.124-.031l-.033,0a.378.378,0,0,0-.244.081.388.388,0,0,0-.04.024c-.008.007-.011.017-.018.025s-.015.01-.022.018a.386.386,0,0,0-.02.038.4.4,0,0,0-.048.093.385.385,0,0,0-.01.04.4.4,0,0,0-.011.122c0,.008,0,.016,0,.024a.4.4,0,0,0,.04.129l.011.018a.393.393,0,0,0,.045.076,8.284,8.284,0,0,0,.944.891,8.722,8.722,0,0,0,5.548,1.88,13.392,13.392,0,0,0,10.125-5.248C35.968,23.007,35.951,15.815,31.62,12.325Z" transform="translate(-8.242 -6.161)" fill="#f1b31c"/><path d="M20.652,30.794c.03-.1.251-.914.281-1.009,2.443.044,2.563-.038,2.926-1.242.686-2.274.885-2.681,1.571-4.954.24-.8.2-.972-.945-1.19l-.7-.128c.026-.084.182-.856.208-.94A38.9,38.9,0,0,0,29.038,21l-2.27,7.843c-.354,1.224-.311,1.322,2.034,1.775-.027.1-.247.916-.274,1.013Z" transform="translate(-11.596 -11.571)" fill="#f1b31c"/></g><g transform="translate(-1.287 -1.85)"><path d="M31.325,12.777q.314.207.612.447c4.161,3.354,4.15,10.271-.025,15.451S20.98,35.334,16.819,31.98a7.88,7.88,0,0,1-.9-.846" transform="translate(-8.819 -6.739)" fill="none" stroke="#000" stroke-miterlimit="10" stroke-width="1"/><ellipse cx="11.984" cy="9.13" rx="11.984" ry="9.13" transform="matrix(0.628, -0.779, 0.779, 0.628, 0, 18.661)" fill="none" stroke="#000" stroke-miterlimit="10" stroke-width="1"/><line x2="1.356" y2="1.145" transform="translate(21.737 20.789)" fill="none" stroke="#000" stroke-miterlimit="10" stroke-width="1"/><line x2="1.196" y2="1.285" transform="translate(20.31 22.335)" fill="none" stroke="#000" stroke-miterlimit="10" stroke-width="1"/><line x2="0.982" y2="1.371" transform="translate(18.8 23.592)" fill="none" stroke="#000" stroke-miterlimit="10" stroke-width="1"/><line x2="0.773" y2="1.38" transform="translate(17.143 24.697)" fill="none" stroke="#000" stroke-miterlimit="10" stroke-width="1"/><line x2="1.44" y2="0.997" transform="translate(22.836 19.245)" fill="none" stroke="#000" stroke-miterlimit="10" stroke-width="1"/><path d="M20.652,30.794c.03-.1.251-.914.281-1.009,2.443.044,2.563-.038,2.926-1.242.686-2.274.885-2.681,1.571-4.954.24-.8.2-.972-.945-1.19l-.7-.128c.026-.084.182-.856.208-.94A38.9,38.9,0,0,0,29.038,21l-2.27,7.843c-.354,1.224-.311,1.322,2.034,1.775-.027.1-.247.916-.274,1.013Z" transform="translate(-11.596 -11.571)" fill="none" stroke="#000" stroke-linecap="round" stroke-linejoin="round" stroke-width="1"/></g></g></g></g></svg>